<?xml version="1.0" standalone="no"?>
<!DOCTYPE svg PUBLIC "-//W3C//DTD SVG 1.1//EN" "http://www.w3.org/Graphics/SVG/1.1/DTD/svg11.dtd" >
<svg xmlns="http://www.w3.org/2000/svg">
<metadata>
This is a custom SVG webfont generated by Font Squirrel.
Copyright   : Copyright c 1987 1991 Adobe Systems Incorporated  All Rights Reserved
Foundry     : Adobe Systems Incorporated
</metadata>
<defs>
<font id="webfont1Ou0dJp0" horiz-adv-x="1179" >
<font-face units-per-em="2048" ascent="1638" descent="-410" />
<missing-glyph horiz-adv-x="589" />
<glyph unicode=" "  horiz-adv-x="589" />
<glyph unicode="&#x09;" horiz-adv-x="589" />
<glyph unicode="&#xa0;" horiz-adv-x="589" />
<glyph unicode="!" horiz-adv-x="366" d="M285 1593l-45 -1083h-113l-45 1083h203zM287 240v-240h-207v240h207z" />
<glyph unicode="&#x22;" horiz-adv-x="569" d="M113 1130v463h112v-463h-112zM344 1130v463h113v-463h-113z" />
<glyph unicode="#" d="M1051 606v-143h-209l-51 -463h-148l51 463h-274l-51 -463h-144l51 463h-202v143h219l43 381h-205v143h221l51 463h144l-51 -463h274l51 463h148l-51 -463h186v-143h-203l-43 -381h193zM754 987h-275l-43 -381h275z" />
<glyph unicode="$" d="M655 -8v-187h-143v187q-131 20 -240.5 100t-175.5 199l123 78q145 -242 375 -242q135 0 235.5 80t100.5 211q0 90 -44 154.5t-116 101.5t-158 68l-171 66q-85 34 -156.5 80t-115.5 125t-44 187q0 170 107.5 277.5t279.5 124.5v186h143v-186q106 -16 202.5 -80t158.5 -158 l-115 -86q-78 102 -145.5 145t-184.5 43q-115 0 -203.5 -63.5t-88.5 -183.5q0 -84 44 -143.5t115.5 -94.5t156.5 -63.5t171 -65.5t157.5 -87t115.5 -138t44 -209q0 -178 -122 -290.5t-306 -135.5z" />
<glyph unicode="%" horiz-adv-x="1425" d="M1079 1593h131l-862 -1593h-133zM1348 383q0 -80 -12.5 -147.5t-41 -131t-84 -100.5t-135.5 -37t-135 37t-84 100.5t-41 131t-12 147.5t12 147.5t41 131t84 100.5t135 37t135.5 -37t84 -100.5t41 -131t12.5 -147.5zM1221 383q0 61 -4.5 104t-17.5 94.5t-44 78t-80 26.5 t-79.5 -26.5t-44 -78t-17.5 -94.5t-4 -104t4 -104t17.5 -94.5t44 -78t79.5 -26.5t80 26.5t44 78t17.5 94.5t4.5 104zM623 1210q0 -80 -12.5 -147.5t-41 -131t-84 -100t-135.5 -36.5t-135 36.5t-84 100t-41 131t-12 147.5t12 147.5t41 131t84 100.5t135 37t135.5 -37 t84 -100.5t41 -131t12.5 -147.5zM496 1210.5q0 61.5 -4.5 104.5t-17.5 94t-44 77.5t-80 26.5t-79.5 -26.5t-44 -77.5t-17.5 -94t-4 -104.5t4 -104.5t17.5 -94t44 -78t79.5 -27t80 27t44 78t17.5 94t4.5 104.5z" />
<glyph unicode="&#x26;" horiz-adv-x="1294" d="M469 778q-115 -74 -175.5 -152.5t-60.5 -193.5q0 -135 86.5 -231.5t217.5 -96.5q158 0 297 146q-218 254 -365 528zM1071 776l143 -26q-49 -299 -170 -486q4 -4 26 -20.5t28 -21.5t25.5 -19.5t29.5 -19.5l28.5 -15t32 -14t31 -7.5t33.5 -3.5v-143q-70 0 -136.5 23.5 t-106.5 48t-97 67.5q-199 -172 -412 -172q-184 0 -315 130t-131 319q0 293 319 489q-4 8 -16 35t-16.5 35t-15.5 32.5t-15 35.5l-12 34q-8 23 -12.5 37t-9.5 37t-7 41t-4 40.5t-2 45.5q0 150 84 249t223 99q135 0 218 -91t83 -237q0 -242 -291 -436q147 -281 332 -485 q78 106 133 399zM532 987q211 135 211 338q0 74 -40.5 122t-108.5 48q-74 0 -113 -63.5t-39 -147.5q0 -143 90 -297z" />
<glyph unicode="'" horiz-adv-x="454" d="M170 1130v463h113v-463h-113z" />
<glyph unicode="(" horiz-adv-x="532" d="M453 -143l-127 -54q-246 428 -246 911.5t246 911.5l127 -53q-217 -434 -217 -858t217 -858z" />
<glyph unicode=")" horiz-adv-x="532" d="M207 -197l-127 54q217 434 217 858t-217 858l127 53q246 -428 246 -911.5t-246 -911.5z" />
<glyph unicode="*" horiz-adv-x="1114" d="M616 1593v-221l209 68l37 -111l-209 -67l129 -181l-94 -67l-131 178l-129 -178l-94 67l129 181l-211 67l37 111l211 -68v221h116z" />
<glyph unicode="+" horiz-adv-x="1351" d="M604 637v440h144v-440h440v-143h-440v-441h-144v441h-440v143h440z" />
<glyph unicode="," horiz-adv-x="589" d="M397 240v-224l-137 -331h-102l102 315h-70v240h207z" />
<glyph unicode="-" horiz-adv-x="419" d="M0 662h420v-144h-420v144z" />
<glyph unicode="." horiz-adv-x="589" d="M397 240v-240h-207v240h207z" />
<glyph unicode="/" horiz-adv-x="899" d="M1010 1593l-979 -1896h-144l979 1896h144z" />
<glyph unicode="0" d="M589.5 1626q100.5 0 182.5 -36t134 -101.5t89 -144t56.5 -177t27.5 -186.5t8 -184.5t-8 -184.5t-27.5 -186t-56.5 -177t-89 -144.5t-134 -101.5t-182.5 -36t-182 36t-134 101.5t-89.5 144.5t-56 177t-27.5 186t-8.5 184.5t8.5 184.5t27.5 186.5t56 177t89.5 144 t134 101.5t182 36zM590 1483q-342 0 -342 -686t342 -686t342 686t-342 686z" />
<glyph unicode="1" d="M657 1593v-1450h228v-143h-627v143h231v1266l-258 -23v99l293 108h133z" />
<glyph unicode="2" d="M295 143h756v-143h-924v145q63 160 166.5 291t201.5 213l187 160q90 78 145.5 169t55.5 200q0 125 -74 215t-195 90q-127 0 -213 -99.5t-106 -230.5l-145 41q39 190 164.5 311t312.5 121q188 0 306 -127t118 -315q0 -113 -46.5 -212.5t-118 -170t-160.5 -148.5l-172 -145 q-83 -68 -154.5 -164.5t-104.5 -200.5z" />
<glyph unicode="3" d="M506 768l-105 -10v155l134 -4q170 0 254.5 79t84.5 208q0 133 -76.5 210t-209.5 77q-170 0 -305 -195l-121 84q184 254 456 254q190 0 303 -118.5t113 -290.5q0 -137 -56 -222.5t-181 -150.5q137 -45 208.5 -149.5t71.5 -250.5q0 -219 -136 -348t-355 -129 q-158 0 -284 79t-200 220l129 78q70 -113 154 -173t203 -60q145 0 233 84t88 229q0 344 -403 344z" />
<glyph unicode="4" d="M1110 524v-143h-242v-381h-168v381h-630v143l571 1069h227v-1069h242zM700 524v895h-4l-460 -895h464z" />
<glyph unicode="5" d="M948 1593v-143h-590l-43 -506q113 133 295 133q211 0 329 -156.5t118 -373.5q0 -242 -132 -411t-366 -169q-291 0 -436 295l133 80q45 -104 124 -167.5t183 -63.5q164 0 245 125.5t81 298.5q0 190 -86 294.5t-207 104.5q-170 0 -305 -211l-127 27l55 843h729z" />
<glyph unicode="6" d="M1012 1522l-76 -123q-109 84 -236 84q-68 0 -134 -31t-133.5 -101.5t-113 -210t-53.5 -329.5l4 -4q135 209 369 209q70 0 141.5 -26.5t141 -82t113.5 -158t44 -237.5q0 -147 -46 -258t-118.5 -170t-149.5 -88t-155 -29q-211 0 -360.5 183.5t-149.5 547.5q0 446 170 687 t426 241q162 0 316 -104zM645 872q-121 0 -219 -86t-156 -208q4 -119 33 -209t67 -137.5t87 -77t85 -36.5t70 -7q115 0 207 99t92 310q0 141 -68.5 246.5t-197.5 105.5z" />
<glyph unicode="7" d="M1065 1593v-118l-582 -1475h-190l604 1450h-721v143h889z" />
<glyph unicode="8" d="M563 770q-324 -113 -323 -354q0 -143 100 -224t246 -81q150 0 252 78.5t102 224.5q0 76 -31.5 136t-92 102t-118 67.5t-135.5 50.5zM762 850q166 -80 252 -181.5t86 -265.5q0 -203 -148.5 -319.5t-357.5 -116.5q-215 0 -364.5 113t-149.5 319q0 164 82 266.5t244 184.5 q-133 80 -199 164t-66 219q0 180 136.5 286.5t320.5 106.5q178 0 314.5 -108.5t136.5 -282.5q0 -250 -287 -385zM598 926q291 82 291 299q0 121 -80 189.5t-203 68.5q-121 0 -213 -64.5t-92 -181.5q0 -111 87 -188.5t210 -122.5z" />
<glyph unicode="9" d="M168 72l76 123q109 -84 235 -84q68 0 134.5 30.5t134 101t112.5 210t53 329.5l-4 4q-135 -209 -368 -208q-70 0 -141.5 26.5t-141.5 81.5t-114 157.5t-44 237.5q0 147 46.5 258t119 170.5t149.5 88t154 28.5q211 0 360.5 -183t149.5 -548q0 -446 -170 -687t-426 -241 q-161 1 -315 105zM535 721q121 0 219 86t155 209q-4 119 -32.5 209t-66.5 137t-87 76.5t-85 37t-71 7.5q-115 0 -207 -99.5t-92 -310.5q0 -141 69 -246.5t198 -105.5z" />
<glyph unicode=":" horiz-adv-x="589" d="M397 240v-240h-207v240h207zM397 1130v-239h-207v239h207z" />
<glyph unicode=";" horiz-adv-x="589" d="M397 240v-224l-137 -331h-102l102 315h-70v240h207zM397 1130v-239h-207v239h207z" />
<glyph unicode="&#x3c;" horiz-adv-x="1351" d="M346 565l842 -393v-141l-1024 481v109l1024 456v-141z" />
<glyph unicode="=" horiz-adv-x="1351" d="M1188 819v-143h-1024v143h1024zM1188 422v-143h-1024v143h1024z" />
<glyph unicode="&#x3e;" horiz-adv-x="1351" d="M1188 621v-109l-1024 -481v141l842 393l-842 371v141z" />
<glyph unicode="?" horiz-adv-x="724" d="M360 510h-129v139q0 86 29 155.5t71 119.5l83 98q41 49 69.5 115.5t28.5 146.5t-39 138.5t-117 58.5q-47 0 -83.5 -25.5t-54 -50.5t-46.5 -78l-127 68q45 104 128 167.5t189 63.5q145 0 231.5 -91t86.5 -245q0 -106 -50 -206.5t-109.5 -163t-110 -142.5t-50.5 -149v-119z M399 240v-240h-206v240h206z" />
<glyph unicode="@" horiz-adv-x="1638" d="M1430 375h143q-104 -188 -300 -298t-413 -110q-344 0 -586.5 244t-242.5 586t242.5 585.5t586.5 243.5q313 0 530.5 -197.5t217.5 -494.5q0 -248 -163 -432.5t-349 -184.5q-154 0 -187 134q-102 -133 -262 -134q-137 0 -211 86t-74 226q0 147 67 294.5t189.5 248 t268.5 100.5q84 0 144.5 -42t68.5 -124h4l41 121h145l-221 -619q-31 -74 -23.5 -121t80.5 -47q133 0 244 161t111 341q0 256 -181.5 406.5t-439.5 150.5q-297 0 -499.5 -202.5t-202.5 -499.5t202.5 -500t499.5 -203q168 0 322 72t248 209zM680 449q84 0 166 98t129 226 t47 231q0 55 -35 102t-96 47q-98 0 -184 -88t-131.5 -206t-45.5 -220q0 -190 150 -190z" />
<glyph unicode="A" horiz-adv-x="1144" d="M686 1593l459 -1593h-172l-146 508h-518l-137 -508h-172l449 1593h237zM788 651l-223 836h-4l-209 -836h436z" />
<glyph unicode="B" horiz-adv-x="1212" d="M295 907h149h93q29 0 89 5.5t89.5 15.5t74 29.5t67 48t38.5 73.5t16 103q0 78 -27.5 131t-62.5 79.5t-103.5 40t-111.5 15.5t-125 2h-24h-162v-543zM295 764v-621h199q270 0 362 72t92 219q0 158 -96 244t-342 86h-215zM590 0h-463v1593h438q145 0 251 -37.5t160 -101 t78.5 -130.5t24.5 -140q0 -129 -70.5 -221.5t-193.5 -122.5q145 -43 223 -144.5t78 -251.5q0 -63 -11 -119.5t-46 -118t-91.5 -105.5t-153.5 -72.5t-224 -28.5z" />
<glyph unicode="C" horiz-adv-x="1273" d="M1163 1147l-149 -37q-18 78 -42 138.5t-63 118.5t-100 90t-139 32q-178 0 -294 -174t-116 -518t116 -518.5t294 -174.5q143 0 226 107.5t118 271.5l155 -41q-37 -209 -166 -342t-333 -133q-254 0 -416 222.5t-162 607.5t162 607t416 222q203 0 329.5 -132t163.5 -347z " />
<glyph unicode="D" horiz-adv-x="1286" d="M127 1593h393q334 0 503 -215t169 -573q0 -805 -715 -805h-350v1593zM295 1450v-1307h158q299 4 435 163t136 505q0 309 -124 473t-370 166h-235z" />
<glyph unicode="E" horiz-adv-x="1142" d="M991 1593v-143h-696v-543h498v-143h-498v-621h743v-143h-911v1593h864z" />
<glyph unicode="F" horiz-adv-x="995" d="M930 1593v-143h-635v-526h481v-144h-481v-780h-168v1593h803z" />
<glyph unicode="G" horiz-adv-x="1306" d="M1194 1163l-162 -39q-41 166 -122 265.5t-240 99.5q-178 0 -294 -174t-116 -518t116 -518.5t294 -174.5q106 0 182 46.5t114 123t52 163.5q10 61 10 127q0 28 -2 57h-324v143h492v-764h-143v156q-137 -188 -381 -189q-254 0 -416 222.5t-162 607.5t162 607t416 222 q211 0 347 -128t177 -335z" />
<glyph unicode="H" horiz-adv-x="1269" d="M295 924h680v669h168v-1593h-168v780h-680v-780h-168v1593h168v-669z" />
<glyph unicode="I" horiz-adv-x="421" d="M295 1593v-1593h-168v1593h168z" />
<glyph unicode="J" horiz-adv-x="858" d="M739 1593v-1165q0 -135 -35.5 -230.5t-96 -142.5t-123 -67.5t-134.5 -20.5q-115 0 -208 64.5t-126 171.5l150 76q10 -66 61.5 -110t118.5 -44q102 0 163.5 84t61.5 221v1163h168z" />
<glyph unicode="K" horiz-adv-x="1189" d="M295 782l625 811h186l-447 -587l498 -1006h-190l-422 858l-250 -323v-535h-168v1593h168v-811z" />
<glyph unicode="L" horiz-adv-x="1038" d="M295 1593v-1450h680v-143h-848v1593h168z" />
<glyph unicode="M" horiz-adv-x="1513" d="M295 1444v-1444h-168v1593h279l348 -1312h6l342 1312h284v-1593h-167v1444h-5l-389 -1444h-137l-389 1444h-4z" />
<glyph unicode="N" horiz-adv-x="1327" d="M295 1448v-1448h-168v1593h266l635 -1255h4v1255h168v-1593h-168l-733 1448h-4z" />
<glyph unicode="O" horiz-adv-x="1339" d="M670 1626q254 0 415.5 -222t161.5 -607t-161.5 -607.5t-415.5 -222.5t-416 222.5t-162 607.5t162 607t416 222zM670 1489q-178 0 -294 -174t-116 -518t116 -518.5t294 -174.5t293.5 174.5t115.5 518.5t-115.5 518t-293.5 174z" />
<glyph unicode="P" horiz-adv-x="1150" d="M127 1593h438q141 0 248 -41t164 -108.5t83.5 -139t26.5 -147.5q0 -80 -25.5 -151.5t-83.5 -140t-171 -108.5t-268 -40h-244v-717h-168v1593zM295 1450v-590h139q70 0 114 2t108.5 10.5t104.5 28t80 50t59.5 82.5t19.5 122q0 49 -11.5 90t-26 69.5t-46.5 51.5l-54 37 q-20 14 -69 23.5t-69.5 14.5t-79 7t-75.5 2h-77h-117z" />
<glyph unicode="Q" horiz-adv-x="1339" d="M1012 -229h112v-144h-112q-92 0 -153.5 11.5t-123 45t-99.5 107.5t-50 186q-141 23 -242.5 109t-154 210t-75 248t-22.5 253q0 385 162 607t416 222t415.5 -222t161.5 -607q0 -100 -13 -198.5t-48 -205t-88.5 -189.5t-143.5 -145.5t-204 -81.5q6 -57 27.5 -97t46 -60.5 t61.5 -32.5t63.5 -14t63.5 -2zM670 1489q-178 0 -294 -174t-116 -518t116 -518.5t294 -174.5t293.5 174.5t115.5 518.5t-115.5 518t-293.5 174z" />
<glyph unicode="R" horiz-adv-x="1167" d="M127 1593h377q141 0 249.5 -29.5t169 -73.5t98.5 -106.5t50 -119t12 -117.5q0 -141 -81.5 -250t-219.5 -154l305 -743h-186l-289 717h-317v-717h-168v1593zM295 1450v-590h225q225 0 310 81t85 212q0 158 -93 227.5t-271 69.5h-256z" />
<glyph unicode="S" horiz-adv-x="1210" d="M1102 1210l-152 -47q-47 158 -118.5 242t-213.5 84q-113 0 -196.5 -79t-83.5 -193q0 -80 43 -139.5t111.5 -96.5t150.5 -69.5t165 -71.5t151.5 -89.5t111.5 -135.5t43 -197q0 -205 -135 -328t-340 -123q-213 0 -357.5 121t-185.5 330l162 39q31 -150 134.5 -251.5 t248.5 -101.5q125 0 215 85t90 210q0 90 -43 154.5t-111.5 103.5t-151.5 71t-165 67.5t-150.5 82t-111.5 126t-43 188.5q0 193 132 313.5t327 120.5q180 0 303 -117t170 -299z" />
<glyph unicode="T" horiz-adv-x="1089" d="M1057 1593v-143h-428v-1450h-168v1450h-428v143h1024z" />
<glyph unicode="U" horiz-adv-x="1249" d="M1130 1593v-1093q0 -154 -46 -263.5t-123.5 -165t-160.5 -80t-175.5 -24.5t-175 24.5t-160.5 80t-124 165t-46 263.5v1093h168v-977q0 -90 4 -148t22.5 -129t53 -113t100 -70.5t158 -28.5t158 28.5t100.5 70.5t53 113t22.5 129t4.5 148v977h167z" />
<glyph unicode="V" horiz-adv-x="1079" d="M1079 1593l-471 -1593h-153l-455 1593h172l358 -1296h5l380 1296h164z" />
<glyph unicode="W" horiz-adv-x="1585" d="M1585 1593l-364 -1593h-164l-271 1303h-4l-284 -1303h-164l-334 1593h160l262 -1286h4l287 1286h157l273 -1286h4l280 1286h158z" />
<glyph unicode="X" horiz-adv-x="1114" d="M1047 1593l-398 -757l449 -836h-193l-352 682h-4l-354 -682h-179l437 836l-412 757h192l316 -600h4l315 600h179z" />
<glyph unicode="Y" horiz-adv-x="1097" d="M1098 1593l-455 -925v-668h-168v668l-475 925h176l385 -764h4l363 764h170z" />
<glyph unicode="Z" horiz-adv-x="1083" d="M1004 1593v-141l-719 -1309h719v-143h-924v129l727 1321h-653v143h850z" />
<glyph unicode="[" horiz-adv-x="532" d="M528 1593v-135h-204v-1519h204v-136h-364v1790h364z" />
<glyph unicode="\" horiz-adv-x="569" d="M547 0l-668 1593h144l667 -1593h-143z" />
<glyph unicode="]" horiz-adv-x="532" d="M4 1593h365v-1790h-365v136h205v1519h-205v135z" />
<glyph unicode="^" horiz-adv-x="1351" d="M279 666h-129l471 927h106l473 -927h-127l-401 761z" />
<glyph unicode="_" horiz-adv-x="1024" d="M1024 -256h-1024v102h1024v-102z" />
<glyph unicode="`" horiz-adv-x="651" d="M270 1593l144 -295h-115l-217 295h188z" />
<glyph unicode="a" horiz-adv-x="1024" d="M928 0h-174l-17 143q-86 -84 -161.5 -130t-165.5 -46q-131 0 -222.5 95.5t-91.5 228.5q0 88 37 158.5t81 111.5t134 81t138.5 54.5t154.5 42.5l45 13l51 14v63q0 94 -58 146.5t-157 52.5q-156 0 -276 -178l-113 84q160 229 389 229q61 0 124 -19.5t121 -59.5t94 -110.5 t36 -162.5v-561q4 -187 31 -250zM737 635l-63 -19q-8 -2 -54.5 -15t-62.5 -18t-60 -20.5t-65 -26.5l-56 -31q-36 -19 -54.5 -37.5t-39 -43.5t-28.5 -54.5t-8 -62.5q0 -74 50 -131t120 -57q172 0 321 184v332z" />
<glyph unicode="b" horiz-adv-x="1085" d="M287 842v-525q37 -80 112.5 -145.5t153.5 -65.5q100 0 184 108t84 333q0 74 -11 147.5t-39 152.5t-85 128t-135 49q-88 0 -156.5 -51t-107.5 -131zM287 129v-129h-160v1593h160v-579q141 150 282 149q166 0 293 -156.5t127 -463.5q0 -154 -42 -271.5t-108.5 -180 t-133 -93.5t-130.5 -31q-157 0 -288 162z" />
<glyph unicode="c" horiz-adv-x="1034" d="M909 877l-135 -62q-37 96 -89 156q-50 57 -132 57h-6q-88 0 -149.5 -44t-90 -117.5t-41 -146.5t-12.5 -155t12.5 -154.5t41 -146.5t90 -118t149.5 -44q166 8 264 228l129 -58q-51 -135 -155.5 -220t-237.5 -85q-203 0 -328 147.5t-125 450.5t125 450.5t328 147.5 q258 1 362 -286z" />
<glyph unicode="d" horiz-adv-x="1083" d="M797 317v525q-39 80 -107.5 131t-157.5 51q-78 0 -135 -49t-84.5 -128t-39 -152.5t-11.5 -147.5q0 -225 84 -333t184 -108q78 0 154 65.5t113 145.5zM797 1014v579h159v-1593h-159v129q-131 -162 -289 -162q-63 0 -130 31t-133.5 93.5t-108.5 180t-42 271.5 q0 307 127 463.5t293 156.5q142 1 283 -149z" />
<glyph unicode="e" horiz-adv-x="1048" d="M944 539h-682q0 -227 83 -332t218 -105q84 0 157 56.5t120 138.5l114 -76q-47 -113 -156.5 -183.5t-250.5 -70.5q-203 0 -328 147.5t-125 450.5t125 450.5t328 147.5q154 0 251 -101t128 -237q22 -97 22 -201q0 -42 -4 -85zM266 674h510v12q0 72 -22 144 q-25 79 -83.5 138.5t-135.5 59.5q-125 0 -196 -109.5t-73 -244.5z" />
<glyph unicode="f" horiz-adv-x="587" d="M557 1130v-135h-209v-995h-160v995h-172v135h172v205q0 143 78 217t221 74l84 -12v-137q-43 14 -77 14q-84 0 -115 -39t-31 -115v-207h209z" />
<glyph unicode="g" horiz-adv-x="1132" d="M788 770q0 117 -62 194.5t-177 77.5q-111 0 -180.5 -80.5t-69.5 -193.5q0 -111 64.5 -188.5t171.5 -77.5q121 0 187 73.5t66 194.5zM608 53l-168 17q-82 -16 -147.5 -58.5t-65.5 -111.5q0 -164 338 -164q51 0 99.5 6t101.5 23.5t85 55.5t32 93q-1 119 -275 139z M1047 1169v-141h-60q-70 0 -115 -24q70 -102 70 -234q0 -166 -108.5 -277.5t-272.5 -111.5q-90 0 -182 35q-4 -4 -22.5 -17.5t-28 -21.5t-21.5 -22.5t-18 -29t-6 -30.5q0 -39 77.5 -54.5t188 -23.5t221.5 -30.5t188.5 -93t77.5 -189.5q0 -27 -4 -51.5t-18.5 -61.5t-48 -66.5 t-82.5 -57t-133 -43t-193 -15.5q-254 0 -368.5 81t-114.5 201q0 135 196 222q-141 55 -141 157q0 45 18.5 77t61.5 71t61 59q-68 80 -96.5 141.5t-28.5 155.5q0 170 114 279.5t286 109.5q135 0 246 -80q118 87 228 88z" />
<glyph unicode="h" horiz-adv-x="1005" d="M283 1593v-579q66 53 97.5 75.5t93 48t120.5 25.5q289 0 289 -383v-780h-160v739v46v52q0 13 -3 47t-8 48t-16.5 37.5t-27 34t-40 19.5t-55.5 9q-68 0 -152.5 -54t-137.5 -118v-860h-160v1593h160z" />
<glyph unicode="i" horiz-adv-x="413" d="M287 1130v-1130h-160v1130h160zM287 1593v-176h-160v176h160z" />
<glyph unicode="j" horiz-adv-x="413" d="M287 1130v-1251q0 -150 -64.5 -214t-193.5 -64h-74v153q45 -8 65 -8q16 0 31 3t25 7t18 13.5t14.5 14.5t9.5 19.5t5 20.5t3 24.5t1 24.5v27v24v1206h160zM287 1593v-176h-160v176h160z" />
<glyph unicode="k" horiz-adv-x="972" d="M287 1593v-987l420 524h178l-312 -387l359 -743h-172l-289 614l-184 -227v-387h-160v1593h160z" />
<glyph unicode="l" horiz-adv-x="413" d="M287 1593v-1593h-160v1593h160z" />
<glyph unicode="m" horiz-adv-x="1626" d="M283 883v-883h-160v1130h160v-100q84 68 153.5 100.5t159.5 32.5q182 0 272 -153q92 74 171 112.5t175 40.5q289 0 289 -383v-780h-160v739v46v52q0 13 -3 47t-8 48t-16 37.5t-26.5 34t-40 19.5t-55.5 9h-4q-155 0 -297 -149v-883h-160v739v46v52q0 13 -3 47t-8 48 t-16.5 37.5t-26.5 34t-40 19.5t-55 9q-63 -2 -123 -26.5t-92.5 -50t-85.5 -72.5z" />
<glyph unicode="n" horiz-adv-x="1005" d="M283 860v-860h-160v1130h160v-116q66 53 97.5 75.5t93 48t120.5 25.5q289 0 289 -383v-780h-160v739v46v52q0 13 -3 47t-8 48t-16.5 37.5t-27 34t-40 19.5t-55.5 9q-68 0 -152.5 -54.5t-137.5 -117.5z" />
<glyph unicode="o" horiz-adv-x="1093" d="M547 -33q-203 0 -328 147.5t-125 450.5t125 450.5t328 147.5t327.5 -147.5t124.5 -450.5t-124.5 -450.5t-327.5 -147.5zM547 102q88 0 149.5 44t90 118t41 146.5t12.5 154.5t-12.5 155t-41 146.5t-90 117.5t-149.5 44t-149.5 -44t-90 -117.5t-41 -146.5t-12.5 -155 t12.5 -154.5t41 -146.5t90 -118t149.5 -44z" />
<glyph unicode="p" horiz-adv-x="1083" d="M287 842v-525q37 -80 112.5 -145.5t153.5 -65.5q100 0 184 108t84 333q0 74 -11 147.5t-39 152.5t-85 128t-135 49q-88 0 -156.5 -51t-107.5 -131zM287 129v-479h-160v1480h160v-116q141 150 282 149q166 0 293 -156.5t127 -463.5q0 -154 -42 -271.5t-108.5 -180 t-133 -93.5t-130.5 -31q-157 0 -288 162z" />
<glyph unicode="q" horiz-adv-x="1083" d="M797 317v525q-39 80 -107.5 131t-157.5 51q-78 0 -135 -49t-84.5 -128t-39 -152.5t-11.5 -147.5q0 -225 84 -333t184 -108q78 0 154 65.5t113 145.5zM797 1014v116h159v-1480h-159v479q-131 -162 -289 -162q-63 0 -130 31t-133.5 93.5t-108.5 180t-42 271.5 q0 307 127 463.5t293 156.5q142 1 283 -149z" />
<glyph unicode="r" horiz-adv-x="714" d="M287 1130v-243h4q57 123 127.5 191.5t185.5 68.5h62v-146q-18 3 -36 3q-208 0 -343 -363v-641h-160v1130h160z" />
<glyph unicode="s" horiz-adv-x="983" d="M866 967l-112 -88q-100 150 -258 149q-84 0 -143.5 -43t-59.5 -125q0 -76 61.5 -124t148.5 -75.5t175 -61.5t149.5 -102.5t61.5 -172.5q0 -164 -103.5 -260.5t-267.5 -96.5q-283 0 -422 238l127 80q96 -182 295 -183q94 0 157.5 50.5t63.5 142.5q0 78 -61.5 127 t-148.5 76.5t-175 61.5t-149.5 105.5t-61.5 184.5q0 141 100.5 227t245.5 86q244 1 377 -196z" />
<glyph unicode="t" horiz-adv-x="620" d="M348 1497v-367h256v-135h-256v-710q0 -55 2 -78t13.5 -52.5t39 -41t74.5 -11.5q72 0 127 15v-117q-90 -33 -160 -33q-63 0 -108 11.5t-72.5 40t-44 53t-23 77t-7.5 82t-1 95.5v30v639h-172v135h172v367h160z" />
<glyph unicode="u" horiz-adv-x="1005" d="M723 270v860h160v-1130h-160v117q-66 -53 -97.5 -76t-93 -48.5t-120.5 -25.5q-289 0 -289 383v780h160v-739q0 -293 149 -293q68 0 153 54.5t138 117.5z" />
<glyph unicode="v" horiz-adv-x="913" d="M897 1130l-319 -1130h-234l-328 1130h156l291 -983l282 983h152z" />
<glyph unicode="w" horiz-adv-x="1361" d="M1346 1130l-299 -1130h-158l-205 897h-4l-211 -897h-162l-291 1130h156l217 -919h4l217 919h156l207 -919h4l211 919h158z" />
<glyph unicode="x" horiz-adv-x="937" d="M840 1130l-295 -534l368 -596h-192l-272 453l-250 -453h-174l331 596l-331 534h190l234 -397l221 397h170z" />
<glyph unicode="y" horiz-adv-x="933" d="M918 1130l-375 -1175q-51 -164 -140.5 -255t-246.5 -91q-55 0 -123 22l24 136q57 -16 93 -17q109 0 163 70.5t93 199.5l-390 1110h162l307 -882l281 882h152z" />
<glyph unicode="z" horiz-adv-x="950" d="M854 1130v-100l-565 -895h565v-135h-760v117l559 878h-508v135h709z" />
<glyph unicode="{" horiz-adv-x="681" d="M258 938v360q0 162 68.5 229.5t253.5 65.5v-4q-88 -27 -125 -85t-37 -163v-364q0 -119 -44 -186.5t-143 -90.5v-4q98 -23 142.5 -90t44.5 -186v-365q0 -104 37 -162.5t125 -85.5v-4q-184 -2 -253 66t-69 229v361q0 106 -30.5 162.5t-127.5 74.5v4q96 18 127 75t31 163z " />
<glyph unicode="|" horiz-adv-x="454" d="M147 -512v2048h160v-2048h-160z" />
<glyph unicode="}" horiz-adv-x="681" d="M424 1298v-360q0 -106 30.5 -162.5t127.5 -75.5v-4q-96 -18 -127 -74.5t-31 -162.5v-361q0 -162 -68.5 -229.5t-253.5 -65.5v4q88 27 125 85.5t37 162.5v365q0 119 44 186.5t143 89.5v4q-98 23 -142.5 90.5t-44.5 186.5v364q0 104 -37 163t-125 85v4q184 2 253 -65.5 t69 -229.5z" />
<glyph unicode="~" horiz-adv-x="1351" d="M1106 733l82 -90q-100 -213 -287 -213q-74 0 -246 74q-168 74 -202 74q-18 0 -35 -3.5t-32 -12.5l-28 -16q-12 -7 -27.5 -22.5t-23.5 -22.5t-22 -28l-19 -27l-18 -27q-14 -22 -17 -24l-67 117q121 201 289 201q76 0 239.5 -74t210.5 -74q101 0 203 168z" />
<glyph unicode="&#xa1;" horiz-adv-x="366" d="M82 -391l45 1012h113l45 -1012h-203zM80 891v239h207v-239h-207z" />
<glyph unicode="&#xa2;" d="M981 1116l-135 -61q-37 96 -89 155.5t-139 57.5q-88 0 -149 -44t-90 -118t-41 -146.5t-12 -154.5t12 -154.5t41 -146.5t90 -118t149 -44q166 8 265 227l129 -57q-47 -121 -141.5 -207t-211.5 -94v-188h-143v192q-150 25 -250 178.5t-100 411.5q0 508 350 588v178h143 v-172q115 -8 198 -86t124 -197z" />
<glyph unicode="&#xa3;" d="M479 213q-111 66 -174 66q-43 0 -79 -27t-36 -68t34 -64.5t75 -23.5q39 0 75 19.5t54 39t51 58.5zM586 911h327v-143h-288q51 -223 51 -303q0 -74 -27 -195q102 -72 158.5 -105.5t72 -38.5t33.5 -5q20 0 37 8t27 15.5t21.5 28t14.5 29.5l12 37q9 28 11 31l127 -43 q-23 -113 -83 -186.5t-162 -73.5q-66 0 -116 24.5t-216 141.5q-63 -82 -130 -124t-161 -42q-102 0 -175 58.5t-73 159t69.5 163t172.5 62.5q98 0 229 -62l6 94q0 147 -71 326h-281v143h242q-41 160 -41 271q0 176 104.5 310t276.5 134q123 0 215 -72.5t141 -193.5l-131 -62 q-43 88 -91 137.5t-128 49.5q-113 0 -170.5 -88t-57.5 -207q1 -125 54 -279z" />
<glyph unicode="&#xa4;" d="M86 440l88 86q-98 145 -98 303q0 170 98 310l-88 88l107 108l90 -88q133 100 315 101q154 0 299 -101l90 88l107 -108l-88 -88q98 -141 98 -320q0 -147 -98 -293l88 -86l-107 -108l-90 88q-139 -102 -317 -103q-152 0 -297 103l-90 -88zM598 1200q-160 4 -266.5 -103.5 t-104.5 -267.5q-2 -150 104.5 -257t254.5 -107q154 0 260 107.5t106 263.5q0 147 -103.5 256.5t-250.5 107.5z" />
<glyph unicode="&#xa5;" d="M1141 1593l-338 -565h266v-143h-356l-31 -58v-118h387v-144h-387v-565h-168v565h-405v144h405v118l-37 58h-368v143h280l-352 565h190l373 -614l354 614h187z" />
<glyph unicode="&#xa6;" horiz-adv-x="454" d="M307 1382v-716h-160v716h160zM147 -358v716h160v-716h-160z" />
<glyph unicode="&#xa7;" horiz-adv-x="1114" d="M475 477l252 -117q68 37 111 98.5t43 133.5q0 135 -219 239l-252 121q-66 -43 -111 -106.5t-45 -130.5q0 -82 61.5 -136.5t159.5 -101.5zM975 1272l-141 -33q-25 115 -98.5 179.5t-190.5 64.5q-88 0 -160 -51.5t-72 -133.5q0 -88 73 -150.5t176.5 -105.5t206.5 -91 t176 -135t73 -210q0 -184 -184 -311q74 -61 111.5 -123.5t37.5 -148.5q0 -156 -117.5 -255.5t-300.5 -99.5q-371 0 -471 373l133 41q76 -270 324 -270q111 0 192.5 52t81.5 156q0 82 -72.5 142.5t-177 103.5t-209 92.5t-177 133t-72.5 200.5q0 98 49 173t137 149 q-72 61 -103.5 120.5t-31.5 147.5q0 152 110.5 248t264.5 96q166 0 277.5 -94t154.5 -260z" />
<glyph unicode="&#xa8;" horiz-adv-x="827" d="M319 1563v-174h-159v174h159zM668 1563v-174h-160v174h160z" />
<glyph unicode="&#xa9;" horiz-adv-x="1720" d="M860 -33q-344 0 -586.5 244t-242.5 586t242.5 585.5t586.5 243.5t587 -243.5t243 -585.5t-243 -586t-587 -244zM860 94q297 0 500 203t203 500t-203 499.5t-500 202.5t-499.5 -202.5t-202.5 -499.5t202.5 -500t499.5 -203zM1219 1026l-123 -25q-27 104 -81 164t-161 60 q-262 0 -262 -426t262 -426q193 0 242 221l123 -27q-31 -135 -126.5 -221t-238.5 -86q-180 0 -301 145.5t-121 393.5t121 393t301 145q143 0 236.5 -86t128.5 -225z" />
<glyph unicode="&#xaa;" horiz-adv-x="655" d="M455 1288l-41 -12q-158 -43 -207 -82t-49 -90q0 -41 29.5 -69.5t70.5 -28.5q117 0 197 98v184zM602 909h-133l-12 78q-98 -86 -205 -86q-90 0 -149.5 55.5t-59.5 145.5q0 63 31.5 111.5t95 79t108 46t121.5 33.5l25 6l31 8v25q0 117 -129 117q-94 0 -174 -111l-89 60 q109 150 263 149q109 0 180.5 -61.5t71.5 -165.5v-326q-1 -111 24 -164z" />
<glyph unicode="&#xab;" horiz-adv-x="860" d="M621 299l-240 291l240 289h159l-239 -289l239 -291h-159zM319 299l-239 291l239 289h160l-239 -289l239 -291h-160z" />
<glyph unicode="&#xac;" horiz-adv-x="1351" d="M1044 229v447h-880v143h1024v-590h-144z" />
<glyph unicode="&#xad;" horiz-adv-x="419" d="M0 662h420v-144h-420v144z" />
<glyph unicode="&#xae;" horiz-adv-x="1720" d="M860 -33q-344 0 -586.5 244t-242.5 586t242.5 585.5t586.5 243.5t587 -243.5t243 -585.5t-243 -586t-587 -244zM860 94q297 0 500 203t203 500t-203 499.5t-500 202.5t-499.5 -202.5t-202.5 -499.5t202.5 -500t499.5 -203zM530 1296h347q193 0 269.5 -85t76.5 -205 q0 -94 -62.5 -168t-171.5 -95l213 -483h-139l-203 465h-203v-465h-127v1036zM657 1184v-346h168q145 0 195.5 43t50.5 127q0 176 -223 176h-191z" />
<glyph unicode="&#xaf;" horiz-adv-x="1036" d="M877 1593v-143h-717v143h717z" />
<glyph unicode="&#xb0;" horiz-adv-x="819" d="M717 1319q0 -127 -90 -217t-217 -90t-217.5 90t-90.5 217q-2 127 89.5 217t218.5 90t217 -90t90 -217zM614 1319q0 84 -60 144.5t-146 60.5q-84 0 -144.5 -60.5t-58.5 -144.5q0 -86 59.5 -145.5t145.5 -59.5q84 0 144 59.5t60 145.5z" />
<glyph unicode="&#xb1;" horiz-adv-x="1351" d="M604 1077h144v-317h440v-144h-440v-317h-144v317h-440v144h440v317zM164 53v144h1024v-144h-1024z" />
<glyph unicode="&#xb2;" horiz-adv-x="706" d="M182 754h471v-103h-602v103q41 90 106.5 166.5t127.5 123.5l117 94q56 46 91 100t35 120q0 74 -41 120t-118 46q-80 0 -126 -50.5t-61 -130.5l-114 25q25 115 106.5 186.5t202.5 71.5q123 0 198.5 -74.5t75.5 -189.5q0 -80 -36.5 -147.5t-96 -119t-122 -99.5t-123 -111 t-91.5 -131z" />
<glyph unicode="&#xb3;" horiz-adv-x="706" d="M299 1108l-68 -8v106l86 -8q92 0 147.5 48t55.5 122q0 156 -168 156q-55 0 -93 -23.5t-79 -77.5l-104 52q102 152 297 151q123 0 196.5 -70.5t73.5 -175.5q0 -82 -37 -134t-117 -89q180 -55 181 -239q0 -131 -88 -209t-230 -78q-213 0 -315 180l110 45q45 -66 89.5 -94.5 t115.5 -28.5q90 0 142.5 43t52.5 129q0 111 -62.5 157t-185.5 46z" />
<glyph unicode="&#xb4;" horiz-adv-x="651" d="M238 1298l143 295h188l-217 -295h-114z" />
<glyph unicode="&#xb5;" horiz-adv-x="1005" d="M723 270v860h160v-1130h-160v117q-66 -53 -97.5 -76t-93 -48.5t-120.5 -25.5q-96 0 -129 33v-391h-160v1521h160v-739q0 -293 149 -293q68 0 153 54.5t138 117.5z" />
<glyph unicode="&#x3bc;" horiz-adv-x="1005" d="M723 270v860h160v-1130h-160v117q-66 -53 -97.5 -76t-93 -48.5t-120.5 -25.5q-96 0 -129 33v-391h-160v1521h160v-739q0 -293 149 -293q68 0 153 54.5t138 117.5z" />
<glyph unicode="&#xb6;" horiz-adv-x="1085" d="M981 1593v-1943h-123v1831h-123v-1831h-123v1145h-49q-492 0 -491 393q0 186 112.5 295.5t307.5 109.5h489zM575 907h37v574h-47q-94 0 -161.5 -25.5t-100.5 -56.5t-50 -78t-19.5 -70.5t-2.5 -54.5q0 -90 27 -149.5t78 -89t106 -40t133 -10.5z" />
<glyph unicode="&#xb7;" horiz-adv-x="589" d="M397 709v-240h-207v240h207z" />
<glyph unicode="&#xb8;" horiz-adv-x="544" d="M381 -137l-121 -236h-104l71 236h154z" />
<glyph unicode="&#xb9;" horiz-adv-x="706" d="M424 1612v-858h141v-103h-407v103h143v731l-160 -15v76l185 66h98z" />
<glyph unicode="&#xba;" horiz-adv-x="702" d="M350.5 891q-153.5 0 -226.5 104.5t-73 264.5q0 158 74 262t225.5 104t225 -104.5t73.5 -261.5q0 -160 -72.5 -264.5t-226 -104.5zM350 989q176 0 176 268q0 270 -176 270.5t-176 -270.5q0 -268 176 -268z" />
<glyph unicode="&#xbb;" horiz-adv-x="860" d="M240 299h-160l239 291l-239 289h160l239 -289zM541 299h-160l240 291l-240 289h160l239 -289z" />
<glyph unicode="&#xbc;" horiz-adv-x="1769" d="M1219 1593h127l-863 -1593h-129zM1485 0h-123v229h-410v86l371 641h162v-624h143v-103h-143v-229zM1362 332v469h-4l-258 -469h262zM424 1612v-858h141v-103h-407v103h143v731l-160 -17v78l185 66h98z" />
<glyph unicode="&#xbd;" horiz-adv-x="1769" d="M1219 1593h127l-863 -1593h-129zM1190 102h471v-102h-602v102q41 90 106.5 167t126.5 124l118 93q56 46 91 100.5t35 120.5q0 74 -41 119.5t-119 45.5q-80 0 -126 -50t-60 -130l-115 25q25 115 107 186.5t202 71.5q123 0 199 -75t76 -189q0 -80 -37 -147.5t-96.5 -119 t-122 -99.5t-122.5 -111.5t-91 -131.5zM424 1612v-858h141v-103h-407v103h143v731l-160 -17v78l185 66h98z" />
<glyph unicode="&#xbe;" horiz-adv-x="1769" d="M1505 0h-123v229h-409v86l370 641h162v-624h144v-103h-144v-229zM1382 332v469h-4l-258 -469h262zM299 1108l-68 -8v106l86 -8q92 0 147.5 48t55.5 122q0 156 -168 156q-55 0 -93 -23.5t-79 -77.5l-104 52q102 152 297 151q123 0 196.5 -70.5t73.5 -175.5q0 -82 -37 -134 t-117 -89q180 -55 181 -239q0 -131 -88 -209t-230 -78q-213 0 -315 180l110 45q45 -66 89.5 -94.5t115.5 -28.5q90 0 142.5 43t52.5 129q0 111 -62.5 157t-185.5 46zM1280 1593h127l-862 -1593h-129z" />
<glyph unicode="&#xbf;" horiz-adv-x="724" d="M365 621h129v-76q0 -86 -29 -158t-71 -121l-83 -94q-41 -45 -69.5 -101.5t-28.5 -119.5q0 -80 39 -138.5t117 -58.5q47 0 83.5 25.5t54 50.5t46.5 78l127 -68q-45 -104 -128 -167.5t-190 -63.5q-145 0 -231 91t-86 245q0 92 50 185t109.5 155.5t110 139.5t50.5 140v56z M326 891v239h206v-239h-206z" />
<glyph unicode="&#xc0;" horiz-adv-x="1144" d="M686 1593l459 -1593h-172l-146 508h-518l-137 -508h-172l449 1593h237zM788 651l-223 836h-4l-209 -836h436zM518 2056l144 -295h-115l-217 295h188z" />
<glyph unicode="&#xc1;" horiz-adv-x="1144" d="M686 1593l459 -1593h-172l-146 508h-518l-137 -508h-172l449 1593h237zM788 651l-223 836h-4l-209 -836h436zM485 1761l144 295h188l-217 -295h-115z" />
<glyph unicode="&#xc2;" horiz-adv-x="1144" d="M686 1593l459 -1593h-172l-146 508h-518l-137 -508h-172l449 1593h237zM788 651l-223 836h-4l-209 -836h436zM631 2056l223 -295h-160l-121 164l-127 -164h-153l221 295h117z" />
<glyph unicode="&#xc3;" horiz-adv-x="1144" d="M686 1593l459 -1593h-172l-146 508h-518l-137 -508h-172l449 1593h237zM788 651l-223 836h-4l-209 -836h436zM817 2064l98 -51q-94 -164 -204 -164q-49 0 -144 41q-100 39 -127 39q-29 0 -53.5 -15.5t-34.5 -29.5l-33 -47l-88 61q102 156 218 156q45 0 131 -37 q78 -39 116 -39q29 0 53.5 15.5t33.5 25.5t34 45z" />
<glyph unicode="&#xc4;" horiz-adv-x="1144" d="M686 1593l459 -1593h-172l-146 508h-518l-137 -508h-172l449 1593h237zM788 651l-223 836h-4l-209 -836h436zM479 2025v-174h-160v174h160zM827 2025v-174h-159v174h159z" />
<glyph unicode="&#xc5;" horiz-adv-x="1144" d="M686 1593l459 -1593h-172l-146 508h-518l-137 -508h-172l449 1593h237zM788 651l-223 836h-4l-209 -836h436zM383 1898.5q0 77.5 56.5 134t134 56.5t134 -56.5t56.5 -134t-56.5 -134t-134 -56.5t-134 56.5t-56.5 134zM477 1898.5q0 -38.5 29 -67.5t67.5 -29t67.5 29 t29 67.5t-29 67.5t-67.5 29t-67.5 -29t-29 -67.5z" />
<glyph unicode="&#xc6;" horiz-adv-x="1892" d="M1729 1593v-143h-654v-543h461v-143h-461v-621h713v-143h-881v506h-461l-249 -506h-197l819 1593h910zM907 649v803h-4l-387 -803h391z" />
<glyph unicode="&#xc7;" horiz-adv-x="1273" d="M1163 1147l-149 -37q-18 78 -42 138.5t-63 118.5t-100 90t-139 32q-178 0 -294 -174t-116 -518t116 -518.5t294 -174.5q143 0 226 107.5t118 271.5l155 -41q-37 -209 -166 -342t-333 -133q-254 0 -416 222.5t-162 607.5t162 607t416 222q203 0 329.5 -132t163.5 -347z M745 -137l-120 -236h-105l72 236h153z" />
<glyph unicode="&#xc8;" horiz-adv-x="1142" d="M991 1593v-143h-696v-543h498v-143h-498v-621h743v-143h-911v1593h864zM516 2056l143 -295h-114l-217 295h188z" />
<glyph unicode="&#xc9;" horiz-adv-x="1142" d="M991 1593v-143h-696v-543h498v-143h-498v-621h743v-143h-911v1593h864zM483 1761l144 295h188l-217 -295h-115z" />
<glyph unicode="&#xca;" horiz-adv-x="1142" d="M991 1593v-143h-696v-543h498v-143h-498v-621h743v-143h-911v1593h864zM629 2056l223 -295h-160l-121 164l-127 -164h-153l221 295h117z" />
<glyph unicode="&#xcb;" horiz-adv-x="1142" d="M991 1593v-143h-696v-543h498v-143h-498v-621h743v-143h-911v1593h864zM477 2025v-174h-160v174h160zM825 2025v-174h-159v174h159z" />
<glyph unicode="&#xcc;" horiz-adv-x="421" d="M295 1593v-1593h-168v1593h168zM156 2056l143 -295h-115l-217 295h189z" />
<glyph unicode="&#xcd;" horiz-adv-x="421" d="M295 1593v-1593h-168v1593h168zM123 1761l143 295h189l-217 -295h-115z" />
<glyph unicode="&#xce;" horiz-adv-x="421" d="M295 1593v-1593h-168v1593h168zM268 2056l224 -295h-160l-121 164l-127 -164h-154l222 295h116z" />
<glyph unicode="&#xcf;" horiz-adv-x="421" d="M295 1593v-1593h-168v1593h168zM117 2025v-174h-160v174h160zM465 2025v-174h-160v174h160z" />
<glyph unicode="&#xd0;" horiz-adv-x="1316" d="M158 1593h393q334 0 503 -215t169 -573q0 -805 -715 -805h-350v764h-168v143h168v686zM326 764v-621h157q299 4 435.5 163t136.5 505q0 309 -124 473t-370 166h-235v-543h336v-143h-336z" />
<glyph unicode="&#xd1;" horiz-adv-x="1327" d="M295 1448v-1448h-168v1593h266l635 -1255h4v1255h168v-1593h-168l-733 1448h-4zM907 2064l99 -51q-94 -164 -205 -164q-49 0 -144 41q-100 39 -127 39q-29 0 -53 -15.5t-35 -29.5l-32 -47l-88 61q102 156 217 156q45 0 131 -37q78 -39 116 -39q29 0 53.5 15.5t33.5 25.5 t34 45z" />
<glyph unicode="&#xd2;" horiz-adv-x="1339" d="M670 1626q254 0 415.5 -222t161.5 -607t-161.5 -607.5t-415.5 -222.5t-416 222.5t-162 607.5t162 607t416 222zM670 1489q-178 0 -294 -174t-116 -518t116 -518.5t294 -174.5t293.5 174.5t115.5 518.5t-115.5 518t-293.5 174zM614 2056l144 -295h-115l-217 295h188z" />
<glyph unicode="&#xd3;" horiz-adv-x="1339" d="M670 1626q254 0 415.5 -222t161.5 -607t-161.5 -607.5t-415.5 -222.5t-416 222.5t-162 607.5t162 607t416 222zM670 1489q-178 0 -294 -174t-116 -518t116 -518.5t294 -174.5t293.5 174.5t115.5 518.5t-115.5 518t-293.5 174zM582 1761l143 295h188l-217 -295h-114z" />
<glyph unicode="&#xd4;" horiz-adv-x="1339" d="M670 1626q254 0 415.5 -222t161.5 -607t-161.5 -607.5t-415.5 -222.5t-416 222.5t-162 607.5t162 607t416 222zM670 1489q-178 0 -294 -174t-116 -518t116 -518.5t294 -174.5t293.5 174.5t115.5 518.5t-115.5 518t-293.5 174zM727 2056l223 -295h-159l-121 164l-127 -164 h-154l221 295h117z" />
<glyph unicode="&#xd5;" horiz-adv-x="1339" d="M670 1626q254 0 415.5 -222t161.5 -607t-161.5 -607.5t-415.5 -222.5t-416 222.5t-162 607.5t162 607t416 222zM670 1489q-178 0 -294 -174t-116 -518t116 -518.5t294 -174.5t293.5 174.5t115.5 518.5t-115.5 518t-293.5 174zM913 2064l99 -51q-94 -164 -205 -164 q-49 0 -143 41q-100 39 -127 39q-29 0 -53.5 -15.5t-34.5 -29.5l-33 -47l-88 61q102 156 217 156q45 0 131 -37q78 -39 117 -39q29 0 53 15.5t33 25.5t34 45z" />
<glyph unicode="&#xd6;" horiz-adv-x="1339" d="M670 1626q254 0 415.5 -222t161.5 -607t-161.5 -607.5t-415.5 -222.5t-416 222.5t-162 607.5t162 607t416 222zM670 1489q-178 0 -294 -174t-116 -518t116 -518.5t294 -174.5t293.5 174.5t115.5 518.5t-115.5 518t-293.5 174zM575 2025v-174h-159v174h159zM924 2025v-174 h-160v174h160z" />
<glyph unicode="&#xd7;" horiz-adv-x="1351" d="M164 975l102 102l410 -409l409 409l103 -102l-410 -410l410 -409l-103 -103l-409 410l-410 -410l-102 103l409 409z" />
<glyph unicode="&#xd8;" horiz-adv-x="1339" d="M1178 1669l114 -67l-172 -252q66 -90 96.5 -260t30.5 -293q0 -385 -161.5 -607.5t-415.5 -222.5q-217 0 -367 160l-149 -221l-107 71l174 261q-129 223 -129 559q0 385 162 607t416 222q217 0 372 -170zM322 381l630 948q-115 160 -282 160q-178 0 -294 -174t-116 -518 q1 -244 62 -416zM1018 1198l-629 -938q61 -80 125 -118t156 -38q178 0 293.5 174.5t115.5 518.5q0 245 -61 401z" />
<glyph unicode="&#xd9;" horiz-adv-x="1249" d="M1130 1593v-1093q0 -154 -46 -263.5t-123.5 -165t-160.5 -80t-175.5 -24.5t-175 24.5t-160.5 80t-124 165t-46 263.5v1093h168v-977q0 -90 4 -148t22.5 -129t53 -113t100 -70.5t158 -28.5t158 28.5t100.5 70.5t53 113t22.5 129t4.5 148v977h167zM569 2056l144 -295h-115 l-217 295h188z" />
<glyph unicode="&#xda;" horiz-adv-x="1249" d="M1130 1593v-1093q0 -154 -46 -263.5t-123.5 -165t-160.5 -80t-175.5 -24.5t-175 24.5t-160.5 80t-124 165t-46 263.5v1093h168v-977q0 -90 4 -148t22.5 -129t53 -113t100 -70.5t158 -28.5t158 28.5t100.5 70.5t53 113t22.5 129t4.5 148v977h167zM537 1761l143 295h188 l-217 -295h-114z" />
<glyph unicode="&#xdb;" horiz-adv-x="1249" d="M1130 1593v-1093q0 -154 -46 -263.5t-123.5 -165t-160.5 -80t-175.5 -24.5t-175 24.5t-160.5 80t-124 165t-46 263.5v1093h168v-977q0 -90 4 -148t22.5 -129t53 -113t100 -70.5t158 -28.5t158 28.5t100.5 70.5t53 113t22.5 129t4.5 148v977h167zM682 2056l223 -295h-160 l-120 164l-127 -164h-154l221 295h117z" />
<glyph unicode="&#xdc;" horiz-adv-x="1249" d="M1130 1593v-1093q0 -154 -46 -263.5t-123.5 -165t-160.5 -80t-175.5 -24.5t-175 24.5t-160.5 80t-124 165t-46 263.5v1093h168v-977q0 -90 4 -148t22.5 -129t53 -113t100 -70.5t158 -28.5t158 28.5t100.5 70.5t53 113t22.5 129t4.5 148v977h167zM530 2025v-174h-159v174 h159zM879 2025v-174h-160v174h160z" />
<glyph unicode="&#xdd;" horiz-adv-x="1097" d="M1098 1593l-455 -925v-668h-168v668l-475 925h176l385 -764h4l363 764h170zM461 1761l143 295h189l-218 -295h-114z" />
<glyph unicode="&#xde;" horiz-adv-x="1150" d="M127 1593h168v-358h270q141 0 248 -41t164 -108.5t83.5 -139.5t26.5 -147q0 -80 -25.5 -152t-83.5 -140.5t-171 -108.5t-268 -40h-244v-358h-168v1593zM295 1092v-590h139q70 0 114 2t108.5 10t104.5 27.5t80 50.5t59.5 83t19.5 122q0 49 -11.5 90t-26 69.5t-46.5 51.5 l-54 36q-20 14 -69 23.5t-69.5 14.5t-79 7.5t-75.5 2.5h-77h-117z" />
<glyph unicode="&#xdf;" horiz-adv-x="1064" d="M422 872v144q127 -12 208 47t81 186q0 102 -50.5 172t-150.5 70q-33 0 -65.5 -8t-71.5 -29.5t-62.5 -71t-23.5 -120.5v-1262h-160v1206q0 106 26.5 186.5t65.5 123.5t92.5 69.5t95.5 33.5t85 7q174 0 272 -100.5t98 -272.5q0 -186 -170 -290q262 -96 262 -463 q0 -117 -26.5 -211t-68.5 -152.5t-95 -98.5t-103.5 -55.5t-99.5 -15.5q-76 0 -145 45v138q63 -43 135 -44q96 0 165.5 120t69.5 280q0 182 -79.5 281t-284.5 85z" />
<glyph unicode="&#xe0;" horiz-adv-x="1024" d="M928 0h-174l-17 143q-86 -84 -161.5 -130t-165.5 -46q-131 0 -222.5 95.5t-91.5 228.5q0 88 37 158.5t81 111.5t134 81t138.5 54.5t154.5 42.5l45 13l51 14v63q0 94 -58 146.5t-157 52.5q-156 0 -276 -178l-113 84q160 229 389 229q61 0 124 -19.5t121 -59.5t94 -110.5 t36 -162.5v-561q4 -187 31 -250zM737 635l-63 -19q-8 -2 -54.5 -15t-62.5 -18t-60 -20.5t-65 -26.5l-56 -31q-36 -19 -54.5 -37.5t-39 -43.5t-28.5 -54.5t-8 -62.5q0 -74 50 -131t120 -57q172 0 321 184v332zM457 1593l143 -295h-115l-217 295h189z" />
<glyph unicode="&#xe1;" horiz-adv-x="1024" d="M928 0h-174l-17 143q-86 -84 -161.5 -130t-165.5 -46q-131 0 -222.5 95.5t-91.5 228.5q0 88 37 158.5t81 111.5t134 81t138.5 54.5t154.5 42.5l45 13l51 14v63q0 94 -58 146.5t-157 52.5q-156 0 -276 -178l-113 84q160 229 389 229q61 0 124 -19.5t121 -59.5t94 -110.5 t36 -162.5v-561q4 -187 31 -250zM737 635l-63 -19q-8 -2 -54.5 -15t-62.5 -18t-60 -20.5t-65 -26.5l-56 -31q-36 -19 -54.5 -37.5t-39 -43.5t-28.5 -54.5t-8 -62.5q0 -74 50 -131t120 -57q172 0 321 184v332zM424 1298l143 295h189l-217 -295h-115z" />
<glyph unicode="&#xe2;" horiz-adv-x="1024" d="M928 0h-174l-17 143q-86 -84 -161.5 -130t-165.5 -46q-131 0 -222.5 95.5t-91.5 228.5q0 88 37 158.5t81 111.5t134 81t138.5 54.5t154.5 42.5l45 13l51 14v63q0 94 -58 146.5t-157 52.5q-156 0 -276 -178l-113 84q160 229 389 229q61 0 124 -19.5t121 -59.5t94 -110.5 t36 -162.5v-561q4 -187 31 -250zM737 635l-63 -19q-8 -2 -54.5 -15t-62.5 -18t-60 -20.5t-65 -26.5l-56 -31q-36 -19 -54.5 -37.5t-39 -43.5t-28.5 -54.5t-8 -62.5q0 -74 50 -131t120 -57q172 0 321 184v332zM569 1593l224 -295h-160l-121 164l-127 -164h-154l222 295h116z " />
<glyph unicode="&#xe3;" horiz-adv-x="1024" d="M928 0h-174l-17 143q-86 -84 -161.5 -130t-165.5 -46q-131 0 -222.5 95.5t-91.5 228.5q0 88 37 158.5t81 111.5t134 81t138.5 54.5t154.5 42.5l45 13l51 14v63q0 94 -58 146.5t-157 52.5q-156 0 -276 -178l-113 84q160 229 389 229q61 0 124 -19.5t121 -59.5t94 -110.5 t36 -162.5v-561q4 -187 31 -250zM737 635l-63 -19q-8 -2 -54.5 -15t-62.5 -18t-60 -20.5t-65 -26.5l-56 -31q-36 -19 -54.5 -37.5t-39 -43.5t-28.5 -54.5t-8 -62.5q0 -74 50 -131t120 -57q172 0 321 184v332zM756 1602l98 -52q-94 -164 -205 -164q-49 0 -143 41 q-100 39 -127 39q-29 0 -53.5 -15t-34.5 -30l-33 -47l-88 62q102 156 217 155q45 0 131 -37q78 -39 117 -38q29 0 53.5 15t33.5 25.5t34 45.5z" />
<glyph unicode="&#xe4;" horiz-adv-x="1024" d="M928 0h-174l-17 143q-86 -84 -161.5 -130t-165.5 -46q-131 0 -222.5 95.5t-91.5 228.5q0 88 37 158.5t81 111.5t134 81t138.5 54.5t154.5 42.5l45 13l51 14v63q0 94 -58 146.5t-157 52.5q-156 0 -276 -178l-113 84q160 229 389 229q61 0 124 -19.5t121 -59.5t94 -110.5 t36 -162.5v-561q4 -187 31 -250zM737 635l-63 -19q-8 -2 -54.5 -15t-62.5 -18t-60 -20.5t-65 -26.5l-56 -31q-36 -19 -54.5 -37.5t-39 -43.5t-28.5 -54.5t-8 -62.5q0 -74 50 -131t120 -57q172 0 321 184v332zM418 1563v-174h-160v174h160zM766 1563v-174h-160v174h160z" />
<glyph unicode="&#xe5;" horiz-adv-x="1024" d="M928 0h-174l-17 143q-86 -84 -161.5 -130t-165.5 -46q-131 0 -222.5 95.5t-91.5 228.5q0 88 37 158.5t81 111.5t134 81t138.5 54.5t154.5 42.5l45 13l51 14v63q0 94 -58 146.5t-157 52.5q-156 0 -276 -178l-113 84q160 229 389 229q61 0 124 -19.5t121 -59.5t94 -110.5 t36 -162.5v-561q4 -187 31 -250zM737 635l-63 -19q-8 -2 -54.5 -15t-62.5 -18t-60 -20.5t-65 -26.5l-56 -31q-36 -19 -54.5 -37.5t-39 -43.5t-28.5 -54.5t-8 -62.5q0 -74 50 -131t120 -57q172 0 321 184v332zM322 1435.5q0 77.5 56 134t134 56.5t134 -56.5t56 -134t-56 -134 t-134 -56.5t-134 56.5t-56 134zM416 1436q0 -39 28.5 -68t67.5 -29t67.5 29t28.5 68t-28.5 67.5t-67.5 28.5t-67.5 -28.5t-28.5 -67.5z" />
<glyph unicode="&#xe6;" horiz-adv-x="1681" d="M774 313l-29 314q-141 -31 -240 -69t-148.5 -69.5t-76 -72.5t-30.5 -63.5t-4 -57.5q0 -84 50 -138.5t134 -54.5q184 0 344 211zM1473 297l114 -76q-47 -113 -156.5 -183.5t-250.5 -70.5q-117 0 -212.5 56.5t-150.5 162.5q-74 -96 -180.5 -157.5t-222.5 -61.5 q-137 0 -227.5 95.5t-90.5 234.5q0 49 7.5 85t43 94.5t100 102.5t192.5 92t306 83v71q0 96 -58 149.5t-161 53.5q-176 0 -270 -174l-119 84q78 113 171 169t220 56q203 0 318 -170q119 170 334 170q154 0 251 -101t127.5 -236.5t18.5 -286.5h-682q0 -227 83 -332t218 -105 q84 0 157 56.5t120 138.5zM889 674h528q6 135 -62.5 244.5t-195.5 109.5t-196.5 -108.5t-73.5 -245.5z" />
<glyph unicode="&#xe7;" horiz-adv-x="1034" d="M909 877l-135 -62q-37 96 -89 155.5t-138 57.5q-88 0 -149.5 -44t-90 -117.5t-41 -146.5t-12.5 -155t12.5 -154.5t41 -146.5t90 -118t149.5 -44q166 8 264 228l129 -58q-51 -135 -155.5 -220t-237.5 -85q-203 0 -328 147.5t-125 450.5t125 450.5t328 147.5 q258 1 362 -286zM627 -137l-121 -236h-105l72 236h154z" />
<glyph unicode="&#xe8;" horiz-adv-x="1048" d="M944 539h-682q0 -227 83 -332t218 -105q84 0 157 56.5t120 138.5l114 -76q-47 -113 -156.5 -183.5t-250.5 -70.5q-203 0 -328 147.5t-125 450.5t125 450.5t328 147.5q154 0 251 -101t127.5 -236t18.5 -287zM266 674h510q2 78 -22.5 156.5t-83 138t-135.5 59.5 q-125 0 -196 -109.5t-73 -244.5zM469 1593l143 -295h-114l-217 295h188z" />
<glyph unicode="&#xe9;" horiz-adv-x="1048" d="M944 539h-682q0 -227 83 -332t218 -105q84 0 157 56.5t120 138.5l114 -76q-47 -113 -156.5 -183.5t-250.5 -70.5q-203 0 -328 147.5t-125 450.5t125 450.5t328 147.5q154 0 251 -101t127.5 -236t18.5 -287zM266 674h510q2 78 -22.5 156.5t-83 138t-135.5 59.5 q-125 0 -196 -109.5t-73 -244.5zM436 1298l144 295h188l-217 -295h-115z" />
<glyph unicode="&#xea;" horiz-adv-x="1048" d="M944 539h-682q0 -227 83 -332t218 -105q84 0 157 56.5t120 138.5l114 -76q-47 -113 -156.5 -183.5t-250.5 -70.5q-203 0 -328 147.5t-125 450.5t125 450.5t328 147.5q154 0 251 -101t127.5 -236t18.5 -287zM266 674h510q2 78 -22.5 156.5t-83 138t-135.5 59.5 q-125 0 -196 -109.5t-73 -244.5zM582 1593l223 -295h-160l-121 164l-127 -164h-153l221 295h117z" />
<glyph unicode="&#xeb;" horiz-adv-x="1048" d="M944 539h-682q0 -227 83 -332t218 -105q84 0 157 56.5t120 138.5l114 -76q-47 -113 -156.5 -183.5t-250.5 -70.5q-203 0 -328 147.5t-125 450.5t125 450.5t328 147.5q154 0 251 -101t127.5 -236t18.5 -287zM266 674h510q2 78 -22.5 156.5t-83 138t-135.5 59.5 q-125 0 -196 -109.5t-73 -244.5zM430 1563v-174h-160v174h160zM778 1563v-174h-160v174h160z" />
<glyph unicode="&#xec;" horiz-adv-x="413" d="M287 1130v-1130h-160v1130h160zM152 1593l143 -295h-115l-217 295h189z" />
<glyph unicode="&#xed;" horiz-adv-x="413" d="M287 1130v-1130h-160v1130h160zM119 1298l143 295h189l-218 -295h-114z" />
<glyph unicode="&#xee;" horiz-adv-x="413" d="M287 1130v-1130h-160v1130h160zM264 1593l223 -295h-159l-121 164l-127 -164h-154l221 295h117z" />
<glyph unicode="&#xef;" horiz-adv-x="413" d="M287 1130v-1130h-160v1130h160zM113 1563v-174h-160v174h160zM461 1563v-174h-160v174h160z" />
<glyph unicode="&#xf0;" horiz-adv-x="1095" d="M547 102q88 0 149.5 44t90 118t41 146.5t12.5 154.5t-12.5 155t-41 146.5t-90 117.5t-149.5 44t-149.5 -44t-90 -117.5t-41 -146.5t-12.5 -155t12.5 -154.5t41 -146.5t90 -118t149.5 -44zM920 1575l55 -88l-215 -92q135 -160 187 -325t52 -365q0 -195 -30.5 -336.5 t-73.5 -217t-109.5 -118.5t-119 -54.5t-119.5 -11.5q-203 0 -328 147.5t-125 450.5t125 450.5t328 147.5q154 0 264 -139q-68 195 -184 315l-299 -125l-56 89l275 114q-82 76 -187 144l156 32q90 -59 160 -120z" />
<glyph unicode="&#xf1;" horiz-adv-x="1005" d="M283 860v-860h-160v1130h160v-116q66 53 97.5 75.5t93 48t120.5 25.5q289 0 289 -383v-780h-160v739v46v52q0 13 -3 47t-8 48t-16.5 37.5t-27 34t-40 19.5t-55.5 9q-68 0 -152.5 -54.5t-137.5 -117.5zM748 1602l98 -52q-94 -164 -205 -164q-49 0 -143 41q-100 39 -127 39 q-29 0 -53.5 -15t-34.5 -30l-33 -47l-88 62q102 156 217 155q45 0 131 -37q78 -39 117 -38q29 0 53.5 15t33.5 25.5t34 45.5z" />
<glyph unicode="&#xf2;" horiz-adv-x="1093" d="M547 -33q-203 0 -328 147.5t-125 450.5t125 450.5t328 147.5t327.5 -147.5t124.5 -450.5t-124.5 -450.5t-327.5 -147.5zM547 102q88 0 149.5 44t90 118t41 146.5t12.5 154.5t-12.5 155t-41 146.5t-90 117.5t-149.5 44t-149.5 -44t-90 -117.5t-41 -146.5t-12.5 -155 t12.5 -154.5t41 -146.5t90 -118t149.5 -44zM492 1593l143 -295h-115l-217 295h189z" />
<glyph unicode="&#xf3;" horiz-adv-x="1093" d="M547 -33q-203 0 -328 147.5t-125 450.5t125 450.5t328 147.5t327.5 -147.5t124.5 -450.5t-124.5 -450.5t-327.5 -147.5zM547 102q88 0 149.5 44t90 118t41 146.5t12.5 154.5t-12.5 155t-41 146.5t-90 117.5t-149.5 44t-149.5 -44t-90 -117.5t-41 -146.5t-12.5 -155 t12.5 -154.5t41 -146.5t90 -118t149.5 -44zM459 1298l143 295h189l-218 -295h-114z" />
<glyph unicode="&#xf4;" horiz-adv-x="1093" d="M547 -33q-203 0 -328 147.5t-125 450.5t125 450.5t328 147.5t327.5 -147.5t124.5 -450.5t-124.5 -450.5t-327.5 -147.5zM547 102q88 0 149.5 44t90 118t41 146.5t12.5 154.5t-12.5 155t-41 146.5t-90 117.5t-149.5 44t-149.5 -44t-90 -117.5t-41 -146.5t-12.5 -155 t12.5 -154.5t41 -146.5t90 -118t149.5 -44zM604 1593l223 -295h-159l-121 164l-127 -164h-154l221 295h117z" />
<glyph unicode="&#xf5;" horiz-adv-x="1093" d="M547 -33q-203 0 -328 147.5t-125 450.5t125 450.5t328 147.5t327.5 -147.5t124.5 -450.5t-124.5 -450.5t-327.5 -147.5zM547 102q88 0 149.5 44t90 118t41 146.5t12.5 154.5t-12.5 155t-41 146.5t-90 117.5t-149.5 44t-149.5 -44t-90 -117.5t-41 -146.5t-12.5 -155 t12.5 -154.5t41 -146.5t90 -118t149.5 -44zM791 1602l98 -52q-94 -164 -205 -164q-49 0 -143 41q-100 39 -127 39q-29 0 -53.5 -15t-34.5 -30l-33 -47l-88 62q102 156 217 155q45 0 131 -37q78 -39 117 -38q29 0 53.5 15t33.5 25.5t34 45.5z" />
<glyph unicode="&#xf6;" horiz-adv-x="1093" d="M547 -33q-203 0 -328 147.5t-125 450.5t125 450.5t328 147.5t327.5 -147.5t124.5 -450.5t-124.5 -450.5t-327.5 -147.5zM547 102q88 0 149.5 44t90 118t41 146.5t12.5 154.5t-12.5 155t-41 146.5t-90 117.5t-149.5 44t-149.5 -44t-90 -117.5t-41 -146.5t-12.5 -155 t12.5 -154.5t41 -146.5t90 -118t149.5 -44zM453 1563v-174h-160v174h160zM801 1563v-174h-160v174h160z" />
<glyph unicode="&#xf7;" horiz-adv-x="1351" d="M1188 637v-143h-1024v143h1024zM780 53h-207v240h207v-240zM780 838h-207v239h207v-239z" />
<glyph unicode="&#xf8;" horiz-adv-x="1093" d="M911 1196l111 -66l-117 -159q94 -156 94 -406q0 -303 -124.5 -450.5t-327.5 -147.5q-166 0 -258 86l-123 -184l-94 72l131 206q-109 152 -109 418q0 303 125 450.5t328 147.5q160 0 278 -98zM299 287l436 657q-66 84 -188 84q-88 0 -149.5 -44t-90 -117.5t-41 -146.5 t-12.5 -155q0 -178 45 -278zM801 821l-430 -645q61 -74 176 -74q88 0 149.5 44t90 118t41 146.5t12.5 154.5q0 147 -39 256z" />
<glyph unicode="&#xf9;" horiz-adv-x="1005" d="M723 270v860h160v-1130h-160v117q-66 -53 -97.5 -76t-93 -48.5t-120.5 -25.5q-289 0 -289 383v780h160v-739q0 -293 149 -293q68 0 153 54.5t138 117.5zM449 1593l143 -295h-115l-217 295h189z" />
<glyph unicode="&#xfa;" horiz-adv-x="1005" d="M723 270v860h160v-1130h-160v117q-66 -53 -97.5 -76t-93 -48.5t-120.5 -25.5q-289 0 -289 383v780h160v-739q0 -293 149 -293q68 0 153 54.5t138 117.5zM416 1298l143 295h189l-218 -295h-114z" />
<glyph unicode="&#xfb;" horiz-adv-x="1005" d="M723 270v860h160v-1130h-160v117q-66 -53 -97.5 -76t-93 -48.5t-120.5 -25.5q-289 0 -289 383v780h160v-739q0 -293 149 -293q68 0 153 54.5t138 117.5zM561 1593l223 -295h-159l-121 164l-127 -164h-154l221 295h117z" />
<glyph unicode="&#xfc;" horiz-adv-x="1005" d="M723 270v860h160v-1130h-160v117q-66 -53 -97.5 -76t-93 -48.5t-120.5 -25.5q-289 0 -289 383v780h160v-739q0 -293 149 -293q68 0 153 54.5t138 117.5zM410 1563v-174h-160v174h160zM758 1563v-174h-160v174h160z" />
<glyph unicode="&#xfd;" horiz-adv-x="933" d="M918 1130l-375 -1175q-51 -164 -140.5 -255t-246.5 -91q-55 0 -123 22l24 136q57 -16 93 -17q109 0 163 70.5t93 199.5l-390 1110h162l307 -882l281 882h152zM379 1298l143 295h189l-217 -295h-115z" />
<glyph unicode="&#xfe;" horiz-adv-x="1083" d="M287 842v-525q37 -80 112.5 -145.5t153.5 -65.5q100 0 184 108t84 333q0 74 -11 147.5t-39 152.5t-85 128t-135 49q-88 0 -156.5 -51t-107.5 -131zM287 129v-479h-160v1943h160v-579q141 150 282 149q166 0 293 -156.5t127 -463.5q0 -154 -42 -271.5t-108.5 -180 t-133 -93.5t-130.5 -31q-157 0 -288 162z" />
<glyph unicode="&#xff;" horiz-adv-x="933" d="M918 1130l-375 -1175q-51 -164 -140.5 -255t-246.5 -91q-55 0 -123 22l24 136q57 -16 93 -17q109 0 163 70.5t93 199.5l-390 1110h162l307 -882l281 882h152zM373 1563v-174h-160v174h160zM721 1563v-174h-160v174h160z" />
<glyph unicode="&#x152;" horiz-adv-x="2058" d="M1075 0v215h-4q-127 -248 -401 -248q-254 0 -416 222.5t-162 607.5t162 607t416 222q258 0 405 -217v184h830v-143h-662v-543h457v-143h-457v-621h711v-143h-879zM670 1489q-178 0 -294 -174t-116 -518t116 -518.5t294 -174.5t293.5 174.5t115.5 518.5t-115.5 518 t-293.5 174z" />
<glyph unicode="&#x153;" horiz-adv-x="1787" d="M995 668h529q6 137 -62.5 248.5t-195.5 111.5t-197 -110.5t-74 -249.5zM547 102q88 0 149.5 44t90 118t41 146.5t12.5 154.5t-12.5 155t-41 146.5t-90 117.5t-149.5 44t-149.5 -44t-90 -117.5t-41 -146.5t-12.5 -155t12.5 -154.5t41 -146.5t90 -118t149.5 -44zM1683 532 h-682q0 -223 83 -326.5t219 -103.5q84 0 156.5 56.5t119.5 138.5l115 -76q-47 -113 -157 -183.5t-251 -70.5q-133 0 -228 71t-143 195q-45 -127 -142 -196.5t-226 -69.5q-203 0 -328 147.5t-125 450.5t125 450.5t328 147.5q127 0 222 -69.5t146 -188.5q94 258 371 258 q154 0 251 -101t127.5 -237.5t18.5 -292.5z" />
<glyph unicode="&#x178;" horiz-adv-x="1097" d="M1098 1593l-455 -925v-668h-168v668l-475 925h176l385 -764h4l363 764h170zM455 2025v-174h-160v174h160zM803 2025v-174h-160v174h160z" />
<glyph unicode="&#x2c6;" horiz-adv-x="880" d="M498 1593l223 -295h-160l-121 164l-127 -164h-153l221 295h117z" />
<glyph unicode="&#x2dc;" horiz-adv-x="1003" d="M745 1602l99 -52q-94 -164 -205 -164q-49 0 -143 41q-100 39 -127 39q-29 0 -53.5 -15t-34.5 -30l-33 -47l-88 62q102 156 217 155q45 0 131 -37q78 -39 117 -38q29 0 53 15t33 25.5t34 45.5z" />
<glyph unicode="&#x2000;" horiz-adv-x="1044" />
<glyph unicode="&#x2001;" horiz-adv-x="2088" />
<glyph unicode="&#x2002;" horiz-adv-x="1044" />
<glyph unicode="&#x2003;" horiz-adv-x="2088" />
<glyph unicode="&#x2004;" horiz-adv-x="696" />
<glyph unicode="&#x2005;" horiz-adv-x="522" />
<glyph unicode="&#x2006;" horiz-adv-x="348" />
<glyph unicode="&#x2007;" horiz-adv-x="348" />
<glyph unicode="&#x2008;" horiz-adv-x="260" />
<glyph unicode="&#x2009;" horiz-adv-x="417" />
<glyph unicode="&#x200a;" horiz-adv-x="114" />
<glyph unicode="&#x2010;" horiz-adv-x="419" d="M0 662h420v-144h-420v144z" />
<glyph unicode="&#x2011;" horiz-adv-x="419" d="M0 662h420v-144h-420v144z" />
<glyph unicode="&#x2012;" horiz-adv-x="419" d="M0 662h420v-144h-420v144z" />
<glyph unicode="&#x2013;" horiz-adv-x="1024" d="M0 662h1024v-144h-1024v144z" />
<glyph unicode="&#x2014;" horiz-adv-x="2048" d="M0 662h2048v-144h-2048v144z" />
<glyph unicode="&#x2018;" horiz-adv-x="399" d="M96 1038v224l137 331h103l-103 -315h70v-240h-207z" />
<glyph unicode="&#x2019;" horiz-adv-x="399" d="M303 1593v-223l-137 -332h-103l103 316h-70v239h207z" />
<glyph unicode="&#x201a;" horiz-adv-x="399" d="M303 240v-224l-137 -331h-103l103 315h-70v240h207z" />
<glyph unicode="&#x201c;" horiz-adv-x="720" d="M96 1038v224l137 331h103l-103 -315h70v-240h-207zM418 1038v224l137 331h102l-102 -315h70v-240h-207z" />
<glyph unicode="&#x201d;" horiz-adv-x="720" d="M303 1593v-223l-137 -332h-103l103 316h-70v239h207zM625 1593v-223l-138 -332h-102l102 316h-69v239h207z" />
<glyph unicode="&#x201e;" horiz-adv-x="720" d="M303 240v-224l-137 -331h-103l103 315h-70v240h207zM625 240v-224l-138 -331h-102l102 315h-69v240h207z" />
<glyph unicode="&#x2022;" horiz-adv-x="1024" d="M881 793q0 -152 -108.5 -259.5t-262.5 -107.5q-150 0 -258.5 108.5t-108.5 258.5q0 154 107.5 262t259.5 108q154 0 262.5 -108t108.5 -262z" />
<glyph unicode="&#x2026;" horiz-adv-x="2048" d="M444 240v-240h-206v240h206zM1126 240v-240h-206v240h206zM1808 240v-240h-206v240h206z" />
<glyph unicode="&#x202f;" horiz-adv-x="417" />
<glyph unicode="&#x2039;" horiz-adv-x="559" d="M319 299l-239 291l239 289h160l-239 -289l239 -291h-160z" />
<glyph unicode="&#x203a;" horiz-adv-x="559" d="M240 299h-160l239 291l-239 289h160l239 -289z" />
<glyph unicode="&#x205f;" horiz-adv-x="522" />
<glyph unicode="&#x2122;" horiz-adv-x="1925" d="M719 1593v-92h-266v-770h-127v770h-267v92h660zM1073 1593l244 -637h4l240 637h198v-862h-127v719h-4l-268 -719h-88l-266 719h-5v-719h-127v862h199z" />
<glyph unicode="&#xe000;" horiz-adv-x="1130" d="M0 1130h1130v-1130h-1130v1130z" />
<glyph unicode="&#xfb01;" horiz-adv-x="970" d="M844 1130v-1130h-160v995h-336v-995h-160v995h-172v135h172v205q0 139 95.5 215t244.5 76q145 0 234 -53v-156q-49 47 -99.5 60.5t-127.5 13.5q-88 0 -137.5 -42t-49.5 -112v-207h496z" />
<glyph unicode="&#xfb02;" horiz-adv-x="1001" d="M557 1130v-135h-209v-995h-160v995h-172v135h172v205q0 139 95.5 215t244.5 76q158 0 346 -33v-1593h-159v1456q-43 35 -180 35q-88 0 -137.5 -42t-49.5 -112v-207h209z" />
<glyph unicode="&#xfb03;" horiz-adv-x="1589" d="M1463 1130v-1130h-160v1130h160zM1463 1593v-176h-160v176h160zM1145 1130v-135h-209v-995h-160v995h-172v135h172v205q0 143 78 217t221 74l84 -12v-137q-43 14 -77 14q-84 0 -115 -39t-31 -115v-207h209zM557 1130v-135h-209v-995h-160v995h-172v135h172v205 q0 143 78 217t221 74l84 -12v-137q-43 14 -77 14q-84 0 -115 -39t-31 -115v-207h209z" />
<glyph unicode="&#xfb04;" horiz-adv-x="1589" d="M1463 1593v-1593h-160v1593h160zM1145 1130v-135h-209v-995h-160v995h-172v135h172v205q0 143 78 217t221 74l84 -12v-137q-43 14 -77 14q-84 0 -115 -39t-31 -115v-207h209zM557 1130v-135h-209v-995h-160v995h-172v135h172v205q0 143 78 217t221 74l84 -12v-137 q-43 14 -77 14q-84 0 -115 -39t-31 -115v-207h209z" />
</font>
</defs>
</svg>
