<?xml version="1.0" standalone="no"?>
<!DOCTYPE svg PUBLIC "-//W3C//DTD SVG 1.1//EN" "http://www.w3.org/Graphics/SVG/1.1/DTD/svg11.dtd" >
<svg xmlns="http://www.w3.org/2000/svg">
<metadata>
This is a custom SVG webfont generated by Font Squirrel.
Copyright   : Design and data by The Monotype Corporation  1993 Microsoft Corporation All rights reserved
</metadata>
<defs>
<font id="webfontw2sLBejI" horiz-adv-x="1174" >
<font-face units-per-em="2048" ascent="1638" descent="-410" />
<missing-glyph horiz-adv-x="640" />
<glyph unicode=" "  horiz-adv-x="640" />
<glyph unicode="&#x09;" horiz-adv-x="640" />
<glyph unicode="&#xa0;" horiz-adv-x="640" />
<glyph unicode="!" horiz-adv-x="748" d="M273 546l-55 984h307l-64 -984h-188zM218 0v329h299v-329h-299z" />
<glyph unicode="&#x22;" horiz-adv-x="981" d="M372 1039h-207l-53 273v248h306v-248zM823 1039h-207l-53 273v248h306v-248z" />
<glyph unicode="#" horiz-adv-x="1366" d="M77 828v189h308l84 383h189l-84 -383h355l82 383h189l-82 -383h170v-189h-206l-63 -303h269v-189h-305l-82 -380h-190l83 380h-359l-78 -380h-191l81 380h-170v189h209l63 303h-272zM893 828h-355l-63 -302h356z" />
<glyph unicode="$" horiz-adv-x="1386" d="M610 1560v63h148v-63q130 -26 225 -78q93 -51 199 -163l-210 -146q-95 84 -214 128v-375q132 -34 213 -79q129 -72 197.5 -178.5t68.5 -240.5q0 -106 -45 -200q-42 -89 -118.5 -149.5t-171.5 -88.5q-48 -14 -144 -21v-269h-148v269q-120 15 -209 50q-88 36 -165 103 q-59 50 -131 152l217 151q128 -177 288 -207v433q-168 37 -272 110q-102 72 -149 171q-46 96 -46 194q0 82 39 166q39 83 111 143.5t162 91.5q51 18 155 33zM610 960v355q-109 -18 -162 -66t-53 -114q0 -57 40 -98q41 -41 175 -77zM758 617v-406q105 15 159.5 69t54.5 132 q0 69 -49.5 120t-164.5 85z" />
<glyph unicode="%" horiz-adv-x="1921" d="M1446 1540h161l-1136 -1967h-170l990 1706q-186 -91 -332 -91q-58 0 -118 16q13 -55 13 -116q0 -232 -127 -396q-126 -164 -328 -164q-157 0 -259 103q-101 104 -101 279q0 150 62 282q61 128 163 194t227 66q118 0 233 -73t237 -73q81 0 186 31q110 32 161 67 q55 37 138 136zM472 1279q-94 0 -138 -107q-57 -142 -57 -294q0 -81 37 -126t94 -45q49 0 98 40q50 41 78 133q30 93 30 209q0 95 -38.5 142.5t-103.5 47.5zM1511 569q165 0 266 -104t101 -280q0 -141 -60 -273q-59 -130 -164.5 -197.5t-237.5 -67.5q-158 0 -257 104 q-99 103 -99 282q0 137 60 272q61 134 165 199t226 65zM1494 398q-54 0 -90 -39q-47 -50 -76 -158q-28 -105 -28 -204q0 -80 38.5 -126.5t94.5 -46.5q74 0 129 76q77 107 77 293q0 104 -39.5 154.5t-105.5 50.5z" />
<glyph unicode="&#x26;" horiz-adv-x="1599" d="M435 857q-111 215 -111 339q0 151 115 257q116 107 303 107q169 0 268 -93q99 -91 99 -227q0 -119 -79 -228q-80 -109 -261 -227q113 -153 278 -318q90 135 160 338l222 -69q-36 -153 -77 -247q-42 -101 -104 -193q118 -81 229 -81h11l26 -233q-56 -7 -90 -7 q-86 0 -168 30q-80 31 -188 102q-241 -137 -439 -137q-183 0 -322 91q-185 119 -185 334q0 210 165 361q45 43 148 101zM640 972q139 76 190 136q52 61 52 122t-43 101q-43 42 -106 42q-78 0 -129 -51q-50 -50 -50 -125q0 -89 86 -225zM562 650q-153 -88 -153 -209 q0 -83 75 -155q76 -72 172 -72q112 0 212 69q-164 174 -306 367z" />
<glyph unicode="'" horiz-adv-x="492" d="M352 1039h-207l-53 273v248h306v-248z" />
<glyph unicode="(" horiz-adv-x="748" d="M582 1553l130 -138q-112 -111 -199 -249q-88 -139 -127.5 -286.5t-39.5 -322.5q0 -318 155 -565q46 -75 211 -273l-107 -141q-279 187 -420 430t-141 561q0 313 133 548q133 236 405 436z" />
<glyph unicode=")" horiz-adv-x="748" d="M24 1416l129 137q180 -131 270 -234q272 -314 272 -752q0 -442 -284 -759q-98 -109 -269 -232l-118 135q124 142 184 232q59 86 104 192q44 104 62 197q19 94 19 216q0 207 -49 360q-48 157 -133 285q-65 96 -187 223z" />
<glyph unicode="*" horiz-adv-x="961" d="M156 1442l200 111l122 -371l126 371l195 -111l-270 -290l384 86v-228l-384 80l270 -283l-195 -117l-126 374l-122 -374l-200 117l272 283l-387 -80v228l387 -86z" />
<glyph unicode="+" horiz-adv-x="1366" d="M125 568v215h449v451h215v-451h451v-215h-451v-447h-215v447h-449z" />
<glyph unicode="," horiz-adv-x="641" d="M166 0v333h300v-333l-183 -329h-106l162 329h-173z" />
<glyph unicode="-" horiz-adv-x="748" d="M109 422v255h529v-255h-529z" />
<glyph unicode="." horiz-adv-x="641" d="M169 0v331h300v-331h-300z" />
<glyph unicode="/" horiz-adv-x="1194" d="M99 0l765 1530h232l-765 -1530h-232z" />
<glyph unicode="0" horiz-adv-x="1280" d="M623 1560q272 0 426 -181q154 -179 154 -612q0 -434 -151 -615q-152 -182 -404 -182q-168 0 -265 52q-150 80 -220 226q-91 186 -91 506q0 438 151 622t400 184zM640 1312q-74 0 -142 -54q-67 -55 -98 -163q-31 -106 -31 -407q0 -264 80 -368t190 -104q71 0 139 52 t100 155q31 102 31 374q0 303 -80 409q-79 106 -189 106z" />
<glyph unicode="1" horiz-adv-x="1280" d="M194 1175v203q141 30 238 65q95 35 194 87h218v-1309h303v-221h-953v221h384v1036q-166 -64 -384 -82z" />
<glyph unicode="2" horiz-adv-x="1280" d="M351 1062l-230 61q26 120 80 200q77 115 196.5 176t257.5 61q223 0 362 -126q140 -125 140 -292q0 -181 -156 -352q-50 -56 -217 -196q-160 -135 -226 -202q-67 -67 -123 -142h717v-250h-1063v48q0 111 46 210q47 100 153 219q59 65 275 254q154 136 199 184 q102 109 102 212q0 82 -64 142q-63 60 -162 60q-98 0 -172.5 -66t-114.5 -201z" />
<glyph unicode="3" horiz-adv-x="1280" d="M348 1162l-186 178q142 123 255 171q111 49 244 49q239 0 375 -142q107 -115 107 -254q0 -113 -80 -208q-79 -94 -228 -133q328 -160 328 -435q0 -173 -140 -296q-140 -122 -386 -122q-237 0 -410 147q-55 48 -129 147l219 137q94 -104 173 -150.5t158 -46.5q95 0 160 62 q65 63 65 148q0 109 -92 183q-91 75 -320 75h-93v263h70q243 0 346 70q73 49 73 131q0 68 -63 125t-150 57q-150 0 -296 -156z" />
<glyph unicode="4" horiz-adv-x="1280" d="M42 554l611 976h365v-976h217v-250h-217v-304h-264v304h-712v250zM754 554v671l-416 -671h416z" />
<glyph unicode="5" horiz-adv-x="1280" d="M143 710l80 820h837v-244h-609l-35 -371q154 100 313 100q204 0 314 -152t110 -348q0 -242 -149 -394q-148 -151 -387 -151q-159 0 -281 62q-120 61 -233 192l257 135q102 -148 239 -148q108 0 184 82q77 83 77 220q0 129 -69 205q-67 76 -159 76q-67 0 -123.5 -30 t-121.5 -101z" />
<glyph unicode="6" horiz-adv-x="1280" d="M359 803q191 166 396 166q167 0 309 -126q143 -126 143 -348q0 -139 -68 -264q-67 -123 -193 -193q-125 -68 -268 -68q-224 0 -385 151q-207 192 -207 574q0 251 92 462q91 210 239 307q147 96 300 96q138 0 264 -57q98 -44 190 -139l-170 -216q-63 80 -126 115t-141 35 q-108 0 -195.5 -69.5t-137.5 -203.5q-33 -87 -42 -222zM382 489q33 -137 109.5 -206t182.5 -69t173 72q69 72 69 187q0 110 -64 177q-65 68 -163 68q-86 0 -159 -52q-71 -50 -148 -177z" />
<glyph unicode="7" horiz-adv-x="1280" d="M112 1269v261h1036v-261l-598 -1269h-306l597 1269h-729z" />
<glyph unicode="8" horiz-adv-x="1280" d="M352 801q-127 67 -186 152t-59 207q0 166 122 270q154 130 410 130q200 0 341 -84q185 -110 185 -311q0 -117 -64 -208t-199 -167q152 -59 231.5 -160.5t79.5 -225.5q0 -179 -149 -307q-148 -127 -431 -127q-161 0 -296 51q-135 53 -207 157q-71 106 -71 228 q0 131 73 226.5t220 168.5zM625 899q136 47 190 112q57 67 57 135q0 77 -60 131t-165 54q-121 0 -183 -53t-62 -130q0 -72 49 -130q48 -57 174 -119zM635 695q-165 -61 -223 -128q-57 -66 -57 -143q0 -92 69 -154q70 -61 210 -61q138 0 211 63q75 63 75 149q0 79 -55 143 t-230 131z" />
<glyph unicode="9" horiz-adv-x="1280" d="M923 739q-197 -170 -394 -170q-191 0 -325 135q-133 136 -133 338q0 142 70 263q71 122 198 188q127 67 268 67q211 0 375 -151q210 -192 210 -581q0 -198 -57 -369q-55 -169 -139 -271q-179 -218 -446 -218q-262 0 -447 204l172 219q119 -153 269 -153q92 0 181 60 q90 61 145 188q40 93 53 251zM898 1050q-37 137 -113.5 205.5t-178.5 68.5q-107 0 -174 -70q-67 -68 -67 -186q0 -112 63 -179q64 -67 158 -67q88 0 162.5 54t149.5 174z" />
<glyph unicode=":" horiz-adv-x="748" d="M221 761v329h303v-329h-303zM221 0v333h303v-333h-303z" />
<glyph unicode=";" horiz-adv-x="748" d="M220 762v328h300v-328h-300zM220 0v330h300v-330l-193 -328h-107l164 328h-164z" />
<glyph unicode="&#x3c;" horiz-adv-x="1366" d="M1238 348v-233l-1112 464v194l1112 465v-233l-819 -328z" />
<glyph unicode="=" horiz-adv-x="1366" d="M126 809v215h1112v-215h-1112zM126 331v216h1112v-216h-1112z" />
<glyph unicode="&#x3e;" horiz-adv-x="1366" d="M126 1005v233l1112 -464v-194l-1112 -465v233l819 328z" />
<glyph unicode="?" horiz-adv-x="961" d="M279 1191l-179 130q107 135 197 186q92 53 197 53q185 0 292 -137q82 -103 82 -229q0 -202 -212 -382q-78 -66 -105 -123q-27 -55 -30 -155h-234q8 193 39 269q32 78 141 190q111 114 111 196q0 47 -32 82q-31 34 -74 34q-67 0 -168 -92q-22 -20 -25 -22zM255 0v328h298 v-328h-298z" />
<glyph unicode="@" horiz-adv-x="2005" d="M1777 87h213q-104 -210 -328 -329q-224 -120 -557 -120q-332 0 -573 113t-355 329q-116 218 -116 470q0 282 131 523q132 240 364 363q232 124 531 124q251 0 446 -97q197 -98 300 -277q104 -181 104 -390q0 -306 -198 -517q-196 -211 -458 -211q-86 0 -128.5 28 t-58.5 87q-118 -115 -275 -115q-164 0 -273 115t-109 313q0 221 128 415q160 241 412 241q182 0 265 -135l25 110h264l-151 -717q-14 -70 -14 -88q0 -23 11 -36t28 -13q57 -4 158 87.5t145 204.5q49 113 49 234q0 246 -178 411q-178 166 -498 166q-270 0 -457 -109 q-188 -110 -285 -310q-96 -201 -96 -417q0 -215 106 -387t299 -252q192 -79 439 -79q268 0 451 80q140 62 239 185zM696 498q0 -127 51 -187q53 -59 128 -59q143 0 227 159q85 158 85 330q0 112 -53 171q-52 60 -132 60q-86 0 -159 -66q-72 -65 -110 -190q-37 -121 -37 -218 z" />
<glyph unicode="A" horiz-adv-x="1386" d="M37 0l496 1530h319l498 -1530h-296l-116 359h-489l-116 -359h-296zM866 582l-173 534l-175 -534h348z" />
<glyph unicode="B" horiz-adv-x="1473" d="M181 0v1530h652q232 0 345 -71q162 -102 162 -294q0 -145 -97 -243q-65 -66 -190 -110q107 -32 163 -74q78 -59 121 -143q43 -85 43 -174q0 -105 -54 -202q-56 -101 -176 -160t-296 -59h-673zM793 1298h-313v-368h321q103 0 179 64q49 40 49 123q0 84 -59 132.5 t-177 48.5zM784 694h-304v-459h241q187 0 266 64t79 170q0 97 -72 161q-71 64 -210 64z" />
<glyph unicode="C" horiz-adv-x="1409" d="M1058 517l277 -79q-31 -128 -81 -205q-80 -125 -206.5 -194t-288.5 -69q-176 0 -336 88q-159 89 -242.5 264.5t-83.5 415.5q0 250 84 440q86 192 246 286q161 96 339 96q133 0 256 -58q126 -59 208 -164q56 -72 91 -196l-280 -80q-30 122 -105.5 186.5t-184.5 64.5 q-160 0 -249 -155t-89 -405q0 -157 41 -277q40 -115 111 -173.5t158 -58.5q127 0 225 91q69 61 110 182z" />
<glyph unicode="D" horiz-adv-x="1516" d="M183 0v1530h556q199 0 354 -97q156 -96 237 -273q82 -174 82 -382q0 -204 -71 -370q-71 -164 -180 -258q-79 -67 -205 -109q-128 -41 -266 -41h-507zM635 1272h-147v-1004h208q109 0 196 58.5t135 157.5q68 139 68 301q0 222 -129 354q-129 133 -331 133z" />
<glyph unicode="E" horiz-adv-x="1300" d="M182 0v1530h1026v-266h-725v-337h442v-227h-442v-436h725v-264h-1026z" />
<glyph unicode="F" horiz-adv-x="1194" d="M181 0v1530h939v-264h-636v-400h367v-264h-367v-602h-303z" />
<glyph unicode="G" horiz-adv-x="1536" d="M1174 0v187q-92 -101 -185 -148q-131 -69 -281 -69q-155 0 -295 76q-141 76 -231 240q-89 166 -89 449q0 297 94 475q95 180 257 265q163 85 350 85q167 0 297.5 -65t210.5 -181q52 -75 86 -202l-239 -82q-41 124 -105 186q-91 88 -238 88q-172 0 -285 -116 q-111 -116 -111 -416q0 -213 46 -321q47 -110 137 -168q91 -58 195 -58q77 0 153 32q75 31 122 78q48 48 70 93q25 48 41 125h-400v229h642v-782h-242z" />
<glyph unicode="H" horiz-adv-x="1536" d="M180 0v1530h299v-604h576v604h302v-1530h-302v662h-576v-662h-299z" />
<glyph unicode="I" horiz-adv-x="705" d="M202 0v1530h300v-1530h-300z" />
<glyph unicode="J" horiz-adv-x="1110" d="M603 467v1063h299v-1063q0 -252 -167 -389q-131 -108 -293 -108q-236 0 -438 249l195 173q77 -98 126 -129t100 -31q74 0 119 53q59 71 59 182z" />
<glyph unicode="K" horiz-adv-x="1450" d="M183 0v1530h301v-677l551 677h331l-478 -591l514 -939h-294l-395 723l-229 -286v-437h-301z" />
<glyph unicode="L" d="M175 0v1530h299v-1266h632v-264h-931z" />
<glyph unicode="M" horiz-adv-x="1812" d="M174 0v1530h478l254 -948l256 948h478v-1530h-287v1362l-368 -1362h-159l-368 1362v-1362h-284z" />
<glyph unicode="N" horiz-adv-x="1599" d="M178 0v1530h318l628 -1027v1027h298v-1530h-298l-645 1067v-1067h-301z" />
<glyph unicode="O" horiz-adv-x="1536" d="M738 1560q216 0 348 -72q172 -94 264 -270q91 -175 91 -462q0 -388 -183 -587t-484 -199q-305 0 -492 202t-187 592q0 235 76 420q40 103 125 192q175 184 442 184zM768 1298q-156 0 -256 -124q-101 -125 -101 -410q0 -281 102 -404q103 -123 263 -123q152 0 253 122 q101 124 101 402q0 311 -123 439q-95 98 -239 98z" />
<glyph unicode="P" horiz-adv-x="1430" d="M178 0v1530h484q258 0 386 -42t206 -147q79 -103 79 -255q0 -117 -45 -216q-34 -74 -107 -133q-70 -58 -143 -87q-123 -50 -288 -50h-268v-600h-304zM736 1265h-254v-415h246q139 0 230 76q61 49 61 144q0 87 -65 141q-64 54 -218 54z" />
<glyph unicode="Q" horiz-adv-x="1536" d="M892 -18q22 -100 89 -146q68 -47 227 -47q52 0 93 4v-191h-139q-327 0 -454 117q-56 51 -81 115q-27 66 -34 166q-136 30 -232 105q-138 108 -202 264t-64 401q0 278 88 448q88 172 251 267q128 75 323 75q206 0 340 -77q344 -199 344 -723q0 -166 -38 -307 q-28 -105 -74 -182.5t-121 -143.5q-74 -66 -145 -98q-72 -32 -171 -47zM764 1296q-152 0 -253 -122t-101 -401q0 -317 129 -443q97 -94 233 -94q87 0 175 53q86 52 133 163q46 108 46 303q0 296 -101 418q-101 123 -261 123z" />
<glyph unicode="R" horiz-adv-x="1430" d="M185 0v1530h413q331 0 460 -50t199 -165q71 -116 71 -264q0 -138 -64 -227q-64 -88 -222 -153l275 -671h-298l-256 615h-276v-615h-302zM728 1263h-241v-412h241q132 0 225 75q61 49 61 139q0 85 -68 141q-68 57 -218 57z" />
<glyph unicode="S" horiz-adv-x="1343" d="M98 323l269 105q77 -117 149 -163q73 -46 174 -46q119 0 187 59q67 60 67 141q0 70 -53 125q-55 55 -241 104q-257 68 -365 164q-137 122 -137 302q0 193 137 319q136 127 376 127q254 0 423 -162q48 -46 96 -129l-252 -103q-64 91 -131 133t-149 42q-100 0 -162 -57 q-60 -56 -60 -136q0 -63 50 -110q48 -45 246 -95t298 -114q102 -65 152 -169q51 -104 51 -214q0 -115 -65 -233q-64 -116 -193 -180q-127 -63 -294 -63q-294 0 -468 194q-53 57 -105 159z" />
<glyph unicode="T" horiz-adv-x="1300" d="M71 1267v263h1160v-263h-431v-1267h-300v1267h-429z" />
<glyph unicode="U" horiz-adv-x="1556" d="M171 544v986h302v-934q0 -171 79.5 -260t221.5 -89q140 0 225 86t85 263v934h303v-978q0 -281 -154 -431.5t-447 -150.5q-170 0 -317 54q-75 27 -130 76q-72 66 -120 168q-48 104 -48 276z" />
<glyph unicode="V" horiz-adv-x="1280" d="M495 0l-467 1530h293l319 -1052l323 1052h289l-466 -1530h-291z" />
<glyph unicode="W" horiz-adv-x="1812" d="M392 0l-363 1530h288l208 -876l210 876h343l211 -883l206 883h289l-362 -1530h-236l-277 1168l-282 -1168h-235z" />
<glyph unicode="X" horiz-adv-x="1386" d="M538 800l-429 730h299l280 -474l279 474h299l-427 -730l468 -800h-300l-319 543l-317 -543h-303z" />
<glyph unicode="Y" horiz-adv-x="1280" d="M485 682l-435 848h314l273 -531l270 531h314l-433 -848v-682h-303v682z" />
<glyph unicode="Z" horiz-adv-x="1280" d="M101 1267v263h1085v-235l-712 -1031h730v-264h-1140v205l738 1062h-701z" />
<glyph unicode="[" horiz-adv-x="748" d="M124 -406v1936h554v-171h-255v-1592h255v-173h-554z" />
<glyph unicode="\" horiz-adv-x="1194" d="M863 0l-764 1530h232l764 -1530h-232z" />
<glyph unicode="]" horiz-adv-x="748" d="M58 1359v171h555v-1934h-555v173h256v1590h-256z" />
<glyph unicode="^" horiz-adv-x="1194" d="M401 731h-286l376 799h223l366 -799h-284l-198 490z" />
<glyph unicode="_" horiz-adv-x="1024" d="M-12 -256v102h1048v-102h-1048z" />
<glyph unicode="`" horiz-adv-x="682" d="M341 1168l-394 314h329l268 -314h-203z" />
<glyph unicode="a" horiz-adv-x="1153" d="M299 774l-164 138q81 96 193.5 146.5t242.5 50.5q134 0 236 -48q74 -36 128 -120q55 -82 55 -209v-508q0 -48 12 -116q11 -64 26 -108h-241q-18 60 -26 112q-149 -131 -318 -131q-147 0 -244 89q-95 90 -95 213q0 134 99.5 236.5t287.5 153.5q101 26 261 44q0 69 -12 100 q-18 48 -63.5 75t-110.5 27q-159 0 -267 -145zM752 288v273q-240 -45 -328 -123q-69 -58 -69 -133q0 -60 39.5 -99t100.5 -39q104 0 257 121z" />
<glyph unicode="b" horiz-adv-x="1260" d="M168 0v1553h275v-595q73 77 146 114t156 37q109 0 212 -69q103 -68 153 -204t50 -280q0 -153 -43 -281q-28 -84 -82 -149t-129.5 -104.5t-159.5 -39.5q-151 0 -303 146v-128h-275zM443 768v-444q96 -114 199 -114q92 0 154 80q63 80 63 275q0 162 -62 239t-150 77 q-109 0 -204 -113z" />
<glyph unicode="c" horiz-adv-x="1087" d="M798 400l216 -107q-39 -98 -79 -150q-123 -161 -341 -161q-247 0 -386 190q-111 152 -111 369q0 253 147 411q147 157 360 157q190 0 311 -140q39 -44 86 -139l-234 -62q-39 65 -79.5 93t-92.5 28q-80 0 -138 -73q-57 -74 -57 -234q0 -126 31 -225q21 -70 67.5 -108.5 t105.5 -38.5q138 0 194 190z" />
<glyph unicode="d" horiz-adv-x="1260" d="M813 964v589h276v-1553h-276v126q-137 -144 -300 -144q-164 0 -276 133q-136 161 -136 427q0 136 38 247q39 111 93 177q119 143 284 143q167 0 297 -145zM813 313v458q-97 106 -194 106q-89 0 -151 -77q-61 -76 -61 -264q0 -168 63 -248q64 -79 152 -79q99 0 191 104z " />
<glyph unicode="e" d="M838 357l225 -95q-37 -70 -70 -109q-145 -171 -373 -171q-139 0 -263 70q-123 70 -190 205q-66 135 -66 301q0 253 142 401q143 150 365 150q217 0 348 -137t131 -381q0 -33 -3 -94h-692q4 -148 69 -220t161 -72q73 0 125 37.5t91 114.5zM391 662h447q-6 125 -70 192 t-157 67q-92 0 -152 -67t-68 -192z" />
<glyph unicode="f" horiz-adv-x="705" d="M56 1090h125q7 170 33 249t78 129q40 39 110 61q72 24 147 24h105v-194h-46q-150 0 -150 -112v-157h165v-198h-165v-892h-277v892h-125v198z" />
<glyph unicode="g" d="M875 1038q69 52 137.5 77t115.5 25h26v-182h-52q-65 0 -123 -31q52 -83 52 -194q0 -165 -118 -271q-116 -106 -334 -106q-71 0 -150 10q-72 -38 -72 -89q0 -33 30 -56q29 -23 113 -26l283 -10q181 -6 266 -82q84 -77 84 -198q0 -151 -123 -247q-121 -97 -425 -97 q-183 0 -329 44q-96 30 -147.5 93t-51.5 147q0 166 199 218q-68 34 -100 76t-32 100t37 105t110 73q-171 117 -171 314q0 159 106 268q107 110 360 110q195 0 309 -71zM570 936q-90 0 -151 -60q-60 -58 -60 -143q0 -83 60 -143q61 -60 147 -60q87 0 147 60q61 60 61 143 t-61 143q-60 60 -143 60zM397 14q-101 -47 -101 -127q0 -54 53 -89q77 -51 264 -51q175 0 247 48q49 31 49 82q0 47 -41 76q-39 27 -193 35q-148 6 -278 26z" />
<glyph unicode="h" horiz-adv-x="1217" d="M174 0v1553h276v-611q192 167 385 167q114 0 168 -62q75 -83 75 -215v-832h-276v765q0 59 -26.5 90t-71.5 31q-99 0 -254 -137v-749h-276z" />
<glyph unicode="i" horiz-adv-x="662" d="M194 1278v275h274v-275h-274zM194 0v1090h274v-1090h-274z" />
<glyph unicode="j" horiz-adv-x="662" d="M218 1272v281h278v-281h-278zM218 -86v1176h278v-1215q0 -94 -37 -161q-37 -70 -121 -111.5t-202 -41.5h-126v196q122 3 165 41q43 37 43 116z" />
<glyph unicode="k" d="M165 0v1553h279v-914l360 451h285l-346 -440l383 -650h-261l-271 460l-150 -189v-271h-279z" />
<glyph unicode="l" horiz-adv-x="682" d="M204 0v1553h276v-1553h-276z" />
<glyph unicode="m" horiz-adv-x="1878" d="M446 1090v-214q119 137 203 184q85 49 178 49q108 0 167 -53q59 -52 88 -190q146 159 219 201t172 42q84 0 135 -30t85 -95q45 -86 45 -246v-738h-275v694q0 185 -129 185q-50 0 -102 -33t-141 -138v-708h-275v682q0 112 -37 158q-36 47 -86 47q-120 0 -247 -179v-708 h-277v1090h277z" />
<glyph unicode="n" horiz-adv-x="1217" d="M444 1090v-149q89 85 180 126.5t198 41.5q124 0 178 -60q72 -79 72 -219v-830h-274v760q0 124 -100 124q-50 0 -108 -29q-60 -30 -146 -110v-745h-276v1090h276z" />
<glyph unicode="o" d="M561 1109q243 0 381 -145q139 -145 139 -412q0 -268 -140 -420q-139 -151 -350 -151q-201 0 -350 143q-148 142 -148 426q0 268 133 413q134 146 335 146zM589 927q-94 0 -148 -73q-72 -98 -72 -310q0 -196 64 -278q65 -83 154 -83q64 0 115.5 41t74.5 115q33 105 33 237 q0 100 -28 184q-26 83 -77 125t-116 42z" />
<glyph unicode="p" horiz-adv-x="1260" d="M455 1090v-114q142 133 286 133q93 0 198 -66q104 -66 163 -198q58 -131 58 -293q0 -262 -132 -416q-130 -154 -282 -154q-62 0 -128 29q-65 30 -163 115v-565h-279v1529h279zM455 788v-472q115 -84 215 -84q88 0 151 77q63 78 63 252q0 154 -65 231q-65 78 -153 78 q-87 0 -211 -82z" />
<glyph unicode="q" horiz-adv-x="1237" d="M802 -439v566q-162 -145 -303 -145q-89 0 -189 68q-98 70 -158 207q-59 139 -59 301q0 166 62 295t182 200q92 56 179 56q137 0 286 -137v118h274v-1529h-274zM802 314v472q-67 46 -115 64.5t-97 18.5q-92 0 -158 -79q-65 -79 -65 -241q0 -158 66 -239q68 -80 159 -80 q90 0 210 84z" />
<glyph unicode="r" horiz-adv-x="874" d="M448 1090v-261q94 157 175 215q83 61 179 65v-280h-25q-102 0 -192 -63q-90 -62 -137 -178v-588h-278v1090h278z" />
<glyph unicode="s" horiz-adv-x="1087" d="M81 180l167 116q80 -61 145.5 -86.5t136.5 -25.5q86 0 132 32t46 78q0 40 -39 74q-38 33 -169 56q-216 38 -304 129q-89 92 -89 217q0 132 116 236q115 103 303 103q106 0 202 -32q95 -31 207 -122l-160 -134q-115 69 -159 84q-42 16 -87 16q-74 0 -119 -39t-45 -88 q0 -44 37 -78q36 -33 183 -65q203 -42 282 -102q112 -82 112 -218q0 -145 -116 -247q-115 -102 -336 -102q-140 0 -242 46q-103 46 -204 152z" />
<glyph unicode="t" horiz-adv-x="748" d="M211 1090v352h276v-352h192v-198h-192v-582q0 -48 34 -73q35 -26 158 -29v-225q-27 0 -50.5 -0.5t-34.5 -1t-12 -0.5q-130 0 -205 34q-74 34 -121 114q-45 79 -45 181v582h-167v198h167z" />
<glyph unicode="u" horiz-adv-x="1217" d="M143 287v803h279v-748q0 -56 31.5 -90t81.5 -34q51 0 104 29q52 28 129 110v733h277v-1090h-277v164q-96 -96 -192 -139t-170 -43h-5q-103 0 -180 78q-79 81 -78 227z" />
<glyph unicode="v" horiz-adv-x="1024" d="M352 0l-291 1090h257l193 -724l195 724h258l-293 -1090h-319z" />
<glyph unicode="w" horiz-adv-x="1556" d="M386 0l-326 1090h246l186 -612l184 612h205l186 -619l184 619h246l-326 -1090h-193l-199 657l-200 -657h-193z" />
<glyph unicode="x" horiz-adv-x="1024" d="M372 555l-304 535h287l158 -278l159 278h283l-300 -535l309 -555h-280l-171 299l-169 -299h-285z" />
<glyph unicode="y" horiz-adv-x="1067" d="M413 -34l-343 1124h260l213 -699l212 699h257l-308 -1024q-55 -183 -109 -277t-127 -151q-96 -77 -290 -77h-99v191h54q113 0 184.5 55t95.5 159z" />
<glyph unicode="z" horiz-adv-x="1004" d="M106 868v222h827v-222l-547 -644h547v-224h-873v224l551 644h-505z" />
<glyph unicode="{" horiz-adv-x="788" d="M60 450v240q89 5 131 35q43 31 66 99q22 66 22 221v42q0 170 22 242q22 73 66 115q46 43 132 68q60 18 192 18h53v-239q-106 0 -141 -12q-34 -12 -48.5 -39t-14.5 -86q0 -62 -9 -238q-4 -99 -26 -162q-21 -62 -54 -102q-30 -38 -99 -83q60 -35 96 -80q39 -46 58.5 -111 t25.5 -173l7 -212q0 -65 17 -93q16 -28 51 -40t137 -12v-239h-53q-135 0 -207 21q-73 21 -122 72q-49 49 -66 124q-17 76 -17 230v35q0 159 -22 225t-66 98t-131 36z" />
<glyph unicode="|" horiz-adv-x="1194" d="M489 -439v1969h217v-1969h-217z" />
<glyph unicode="}" horiz-adv-x="788" d="M729 690v-240q-88 -5 -131 -36q-44 -32 -66 -99q-22 -66 -22 -221v-42q0 -170 -22 -242q-21 -73 -66 -115t-132 -68q-60 -18 -192 -18h-53v239q101 0 136 12t51 40q17 28 17 86q2 60 9 227q4 106 26 171q40 121 153 185q-74 47 -109 96q-46 65 -63 165q-10 58 -16 308 q-1 76 -14 101q-11 24 -45 38q-33 14 -145 14v239h53q135 0 207 -21q71 -21 121 -72q49 -49 66 -124q18 -73 18 -230q0 -185 15 -240q23 -81 67 -115q44 -33 137 -38z" />
<glyph unicode="~" horiz-adv-x="1343" d="M1227 896v-223q-170 -140 -301 -140q-63 0 -117 16q-62 18 -188 80q-133 65 -201 65q-144 0 -303 -147v224q160 137 316 137q52 0 106 -16q57 -15 161 -66q108 -52 150 -65q45 -13 84 -13q127 0 293 148z" />
<glyph unicode="&#xa1;" horiz-adv-x="748" d="M223 993v328h301v-328h-301zM212 -208l64 985h192l56 -985h-312z" />
<glyph unicode="&#xa2;" horiz-adv-x="961" d="M913 1548l-187 -573q63 -43 99 -90q36 -46 64 -119l-168 -68q-22 52 -56 89l-196 -602q25 -3 38 -3q67 0 119.5 39.5t82.5 117.5l152 -77q-62 -140 -161 -210.5t-220 -70.5q-34 0 -74 9l-133 -407h-91l143 438q-118 64 -181 195q-62 133 -62 300q0 240 128 377t317 137 q52 0 121 -20l175 538h90zM392 228l197 604q-37 8 -61 8q-64 0 -120 -35q-55 -34 -81 -97q-24 -62 -24 -183q0 -119 21 -182q21 -62 68 -115z" />
<glyph unicode="&#xa3;" horiz-adv-x="1280" d="M118 907h240q-35 117 -35 223q0 199 113 315q112 115 305 115q238 0 334 -207q29 -63 43 -177l-242 -18q-8 118 -46 161q-39 44 -104 44q-66 0 -107 -44.5t-41 -118.5q0 -105 53 -293h304v-199h-262q13 -78 13 -149q0 -137 -39 -247q195 -89 252 -89q44 0 73.5 37.5 t32.5 109.5h229q-2 -125 -42 -212q-39 -86 -122 -137q-82 -51 -170 -51q-145 0 -352 144q-76 -81 -137 -112q-62 -32 -134 -32q-110 0 -175 64q-66 64 -66 163q0 102 66 168t169 66q62 0 185 -41q1 16 1 36q0 117 -49 282h-290v199zM408 209q-95 71 -159 71q-32 0 -53.5 -22 t-21.5 -56q0 -36 24.5 -59.5t62.5 -23.5q83 0 147 90z" />
<glyph unicode="&#xa4;" horiz-adv-x="1430" d="M938 1069l132 133l140 -142l-131 -133q73 -119 73 -249q0 -136 -73 -254l131 -130l-140 -141l-132 130q-122 -75 -255 -75q-129 0 -250 74l-130 -129l-143 141l131 130q-73 118 -73 254q0 130 74 249l-132 133l140 142l133 -133q125 74 251 74q132 0 254 -74zM953 675 q0 111 -79 189q-78 79 -189 79t-189 -79q-78 -78 -78 -189q0 -109 78 -189q78 -78 189 -78t189 78q79 79 79 189z" />
<glyph unicode="&#xa5;" horiz-adv-x="1280" d="M1221 1530l-271 -531h271v-148h-346l-87 -172v-118h433v-148h-433v-413h-303v413h-435v148h435v118l-88 172h-347v148h272l-272 531h314l273 -531l270 531h314z" />
<glyph unicode="&#xa6;" horiz-adv-x="1194" d="M489 800v730h217v-730h-217zM489 -439v731h217v-731h-217z" />
<glyph unicode="&#xa7;" horiz-adv-x="1067" d="M305 939q-85 79 -123 149.5t-38 145.5q0 142 102 233q104 93 297 93q246 0 350 -172q33 -53 56 -153l-255 -37q-17 81 -60.5 122.5t-100.5 41.5q-50 0 -83 -29.5t-33 -69.5t34 -80q45 -53 231 -184q141 -99 196 -151q115 -105 115 -280q0 -126 -54 -215 q-54 -87 -173 -161q86 -83 122 -153t36 -151q0 -138 -104 -233q-103 -94 -289 -94q-168 0 -274 86t-136 244l254 39q17 -83 59 -124.5t99 -41.5q53 0 87 31q35 32 35 69q0 39 -35 83q-35 42 -198 157q-163 116 -220 167q-58 53 -87 111q-37 73 -37 170q0 253 227 387z M442 832q-118 -105 -118 -217q0 -67 42 -119q43 -51 262 -196q116 104 116 216q0 48 -24 90q-22 44 -75 84q-56 45 -203 142z" />
<glyph unicode="&#xa8;" horiz-adv-x="682" d="M-12 1212v216h219v-216h-219zM471 1212v216h217v-216h-217z" />
<glyph unicode="&#xa9;" horiz-adv-x="1516" d="M757 1560q197 0 378 -99q180 -97 284 -282t104 -385t-102 -381q-100 -181 -283 -284q-182 -101 -381 -101q-200 0 -382 101q-181 102 -283 283q-101 182 -101 382q0 201 103 385q104 185 285 282q181 99 378 99zM757 1409q-159 0 -304 -79q-146 -80 -228 -227 q-83 -148 -83 -309q0 -160 81 -306q83 -146 228 -228q145 -81 306 -81t306 81q146 83 227 228q82 145 82 306q0 160 -83 309q-81 146 -229 227q-145 79 -303 79zM943 681l161 -55q-38 -125 -125.5 -192.5t-210.5 -67.5q-171 0 -279 112t-108 310q0 205 106 317 q107 113 283 113q124 0 206.5 -58.5t127.5 -183.5l-162 -39q-53 139 -178 139q-95 0 -151 -71t-56 -212q0 -146 57 -215t137 -69q142 0 192 172z" />
<glyph unicode="&#xaa;" horiz-adv-x="768" d="M206 1350l-103 87q58 64 123.5 93.5t155.5 29.5q138 0 203 -64q66 -64 66 -181v-341q0 -50 24 -121h-154q-19 42 -22 73q-97 -86 -205 -86q-90 0 -151 58t-61 135q0 70 47.5 133.5t139.5 100.5q64 27 230 48q-2 67 -31 97t-89 30q-51 0 -90 -20.5t-83 -71.5zM499 1040 v174q-154 -30 -205 -75q-51 -43 -51 -92q0 -37 25.5 -62.5t63.5 -25.5q65 0 167 81z" />
<glyph unicode="&#xab;" horiz-adv-x="1067" d="M496 543l237 547h288l-237 -547l237 -543h-288zM47 543l238 547h291l-235 -547l235 -543h-291z" />
<glyph unicode="&#xac;" horiz-adv-x="1366" d="M125 818v215h1114v-702h-214v487h-900z" />
<glyph unicode="&#xad;" horiz-adv-x="748" d="M109 422v255h529v-255h-529z" />
<glyph unicode="&#xae;" horiz-adv-x="1516" d="M757 1560q197 0 378 -99q180 -97 284 -282t104 -385t-102 -382q-100 -180 -283 -283q-182 -101 -381 -101q-200 0 -382 101q-181 102 -283 283q-101 182 -101 382q0 201 103 385q104 185 285 282q181 99 378 99zM758 1411q-157 0 -303 -80t-229 -227q-83 -149 -83 -310 q0 -162 81 -307q82 -145 228 -228q145 -82 306 -82t306 82q146 83 228 228t82 307t-84 310q-81 146 -229 227q-146 80 -303 80zM576 384h-165v813h165q223 0 261 -2q81 -7 126 -33q47 -25 77 -78t30 -115q0 -90 -58 -152t-161 -77q37 -14 57 -30q22 -19 55 -63q9 -12 60 -99 l96 -164h-204l-68 132q-68 132 -114 167t-114 35h-43v-334zM576 1068v-222h67q133 0 160 7q43 9 67.5 37.5t24.5 67.5q0 40 -27 69t-74 36q-37 5 -151 5h-67z" />
<glyph unicode="&#xaf;" horiz-adv-x="1024" d="M103 1583v102h1048v-102h-1048z" />
<glyph unicode="&#xb0;" horiz-adv-x="811" d="M86 1241q0 133 93 226q95 93 226 93q132 0 225 -94q94 -93 94 -225t-94 -226q-93 -93 -225 -93q-131 0 -226 93q-93 93 -93 226zM252 1241q0 -63 45 -108t108 -45t108 45t45 108t-45 108t-108 45t-108 -45t-45 -108z" />
<glyph unicode="&#xb1;" horiz-adv-x="1366" d="M125 749v214h449v451h215v-451h451v-214h-451v-449h-215v449h-449zM125 -60v215h1115v-215h-1115z" />
<glyph unicode="&#xb2;" horiz-adv-x="641" d="M197 1318l-116 49q89 176 259 176q99 0 162 -60t63 -145q0 -62 -35 -120q-34 -55 -128 -129q-68 -54 -98 -89q-28 -32 -58 -89h319v-143h-484v39q0 107 46 191t140 159q90 72 113 106q22 34 22 64q0 31 -21.5 51t-56.5 20q-62 0 -127 -80z" />
<glyph unicode="&#xb3;" horiz-adv-x="641" d="M170 1343l-97 73q119 128 250 128q104 0 165 -56q61 -55 61 -136q0 -64 -38.5 -110.5t-130.5 -81.5q190 -54 190 -203q0 -84 -71 -149q-71 -63 -180 -63q-146 0 -246 154l111 50q54 -78 124 -78q45 0 71.5 26t26.5 68q0 53 -36 84q-49 41 -120 41h-25v124q88 0 132.5 32 t44.5 81q0 36 -29.5 62.5t-71.5 26.5q-65 0 -131 -73z" />
<glyph unicode="&#xb4;" horiz-adv-x="682" d="M129 1168l273 315h326l-392 -315h-207z" />
<glyph unicode="&#xb5;" horiz-adv-x="1260" d="M151 -407v1469h279v-481q0 -208 42 -283q52 -97 157 -97q59 0 111 40q54 41 73 108q20 71 20 229v484h284v-1062h-262v128q-30 -56 -57 -84t-73 -49q-45 -21 -83 -21q-70 0 -126 39q-39 28 -86 115v-535h-279z" />
<glyph unicode="&#xb6;" horiz-adv-x="1130" d="M635 1270v-1609h-243v1047q-188 13 -292 122q-102 108 -102 281q0 109 40 196q75 166 272 211q57 12 222 12h597v-260h-113v-1609h-237v1609h-144z" />
<glyph unicode="&#xb8;" horiz-adv-x="682" d="M26 -403v117h14q111 -10 172 -10q92 0 135 33q33 24 33 61q0 36 -32.5 60t-92.5 24q-61 0 -133 -20l26 99q82 21 170 21q124 0 188 -55q65 -56 65 -132q0 -85 -85 -149q-85 -65 -269 -65q-120 0 -191 16z" />
<glyph unicode="&#xb9;" horiz-adv-x="641" d="M97 1317v140q87 33 161 65h150v-613h152v-141h-455v141h153v442q-86 -23 -161 -34z" />
<glyph unicode="&#xba;" horiz-adv-x="768" d="M349 1561l35 -1q141 0 228 -93t87 -261q0 -171 -89 -269q-88 -96 -222 -96q-138 0 -229 96q-91 97 -91 267q0 180 90 269q89 88 191 88zM384 1446q-60 0 -94 -46q-47 -65 -47 -198q0 -124 41 -179q42 -54 100 -54q59 0 100 53q41 55 41 189q0 128 -41 181q-40 54 -100 54 z" />
<glyph unicode="&#xbb;" horiz-adv-x="1067" d="M286 544l-235 546h290l233 -546l-233 -544h-290zM731 544l-236 546h287l235 -546l-235 -544h-287z" />
<glyph unicode="&#xbc;" horiz-adv-x="1921" d="M402 -186l1013 1754l121 -75l-1010 -1745zM76 1337v158q116 10 190 58h164v-812h162v-160h-527v160h169v626q-67 -25 -158 -30zM1042 107l431 678h233v-669h113v-160h-113v-208h-195v208h-469v151zM1511 116v465l-292 -465h292z" />
<glyph unicode="&#xbd;" horiz-adv-x="1921" d="M101 1340v162q111 12 187 58h164v-818h160v-158h-529v158h172v627q-66 -25 -154 -29zM353 -185l1009 1745l125 -67l-1009 -1744zM1343 482l-166 35q36 116 97 177q91 91 229 91t226 -85q90 -86 90 -201q0 -75 -41 -143q-42 -70 -178 -191q-138 -121 -219 -219h446v-197 h-670v151q0 22 59 107q100 143 237 260q102 87 130 133q29 47 29 87q0 55 -36 92q-36 38 -88 38q-100 0 -145 -135z" />
<glyph unicode="&#xbe;" horiz-adv-x="1921" d="M404 -191l1008 1751l124 -72l-1008 -1742zM214 1289l-126 109q146 155 334 155q126 0 200 -73q76 -73 76 -183q0 -78 -41.5 -130.5t-139.5 -96.5q104 -36 149.5 -92t45.5 -137q0 -109 -89 -187q-89 -77 -236 -77q-99 0 -186 43t-142 124l130 98q104 -100 189 -100 q52 0 89 35q36 35 36 82q0 53 -54 94q-52 40 -183 40h-38v157h58q116 0 165 36q49 37 49 86q0 37 -37 70q-36 33 -86 33q-86 0 -163 -86zM1055 102l423 679h240v-668h111v-158h-111v-209h-194v209h-469v147zM1524 113v470l-294 -470h294z" />
<glyph unicode="&#xbf;" horiz-adv-x="961" d="M410 987v326h300v-326h-300zM443 739v43h235v-43q0 -135 -41 -240q-23 -55 -111 -150q-90 -95 -113 -139q-24 -46 -24 -87q0 -46 32.5 -79t78.5 -33q36 0 74 22q40 23 112 94l184 -127q-102 -131 -199 -190q-95 -57 -199 -57q-176 0 -276 121t-100 250q0 94 58 200 t171 196q66 53 92 113q26 63 26 106z" />
<glyph unicode="&#xc0;" horiz-adv-x="1386" d="M37 0l496 1530h319l498 -1530h-296l-116 359h-489l-116 -359h-296zM866 582l-173 534l-175 -534h348zM693 1611l-394 314h329l268 -314h-203z" />
<glyph unicode="&#xc1;" horiz-adv-x="1386" d="M37 0l496 1530h319l498 -1530h-296l-116 359h-489l-116 -359h-296zM866 582l-173 534l-175 -534h348zM481 1611l273 315h326l-392 -315h-207z" />
<glyph unicode="&#xc2;" horiz-adv-x="1386" d="M37 0l496 1530h319l498 -1530h-296l-116 359h-489l-116 -359h-296zM866 582l-173 534l-175 -534h348zM325 1608l291 317h156l279 -317h-177l-183 140l-181 -140h-185z" />
<glyph unicode="&#xc3;" horiz-adv-x="1386" d="M37 0l496 1530h319l498 -1530h-296l-116 359h-489l-116 -359h-296zM866 582l-173 534l-175 -534h348zM487 1623h-156q13 151 69 213q57 61 149 61q82 0 194 -56q62 -31 92 -31q55 0 67 84h149q-10 -148 -67 -211q-56 -62 -144 -62q-86 0 -201 58q-61 31 -87 31 q-27 0 -45.5 -23t-19.5 -64z" />
<glyph unicode="&#xc4;" horiz-adv-x="1386" d="M37 0l496 1530h319l498 -1530h-296l-116 359h-489l-116 -359h-296zM866 582l-173 534l-175 -534h348zM340 1655v216h219v-216h-219zM823 1655v216h217v-216h-217z" />
<glyph unicode="&#xc5;" horiz-adv-x="1386" d="M37 0l496 1530h319l498 -1530h-296l-116 359h-489l-116 -359h-296zM866 582l-173 534l-175 -534h348zM692 2003q79 0 135 -56t56 -135t-56 -135q-55 -55 -134 -55q-80 0 -135 55t-55 135q0 78 56 134q57 57 133 57zM696 1927q-50 0 -84 -34t-34 -82t34 -82t82 -34 t81.5 34t33.5 82t-34 82q-33 34 -79 34z" />
<glyph unicode="&#xc6;" horiz-adv-x="1921" d="M35 0l585 1530h1210v-263h-636v-334h378v-230h-378v-436h636v-267h-943v357h-415l-139 -357h-298zM887 1267h-68l-262 -686h330v686z" />
<glyph unicode="&#xc7;" horiz-adv-x="1409" d="M1058 517l277 -79q-31 -128 -81 -205q-80 -125 -206.5 -194t-288.5 -69q-176 0 -336 88q-159 89 -242.5 264.5t-83.5 415.5q0 250 84 440q86 192 246 286q161 96 339 96q133 0 256 -58q126 -59 208 -164q56 -72 91 -196l-280 -80q-30 122 -105.5 186.5t-184.5 64.5 q-160 0 -249 -155t-89 -405q0 -157 41 -277q40 -115 111 -173.5t158 -58.5q127 0 225 91q69 61 110 182zM390 -403v117h14q111 -10 172 -10q92 0 135 33q33 24 33 61q0 36 -32.5 60t-92.5 24q-61 0 -133 -20l26 99q82 21 170 21q124 0 188 -55q65 -56 65 -132 q0 -85 -85 -149q-85 -65 -269 -65q-120 0 -191 16z" />
<glyph unicode="&#xc8;" horiz-adv-x="1300" d="M182 0v1530h1026v-266h-725v-337h442v-227h-442v-436h725v-264h-1026zM650 1611l-394 314h329l268 -314h-203z" />
<glyph unicode="&#xc9;" horiz-adv-x="1300" d="M182 0v1530h1026v-266h-725v-337h442v-227h-442v-436h725v-264h-1026zM438 1611l273 315h326l-392 -315h-207z" />
<glyph unicode="&#xca;" horiz-adv-x="1300" d="M182 0v1530h1026v-266h-725v-337h442v-227h-442v-436h725v-264h-1026zM282 1608l291 317h156l279 -317h-177l-183 140l-181 -140h-185z" />
<glyph unicode="&#xcb;" horiz-adv-x="1300" d="M182 0v1530h1026v-266h-725v-337h442v-227h-442v-436h725v-264h-1026zM297 1655v216h219v-216h-219zM780 1655v216h217v-216h-217z" />
<glyph unicode="&#xcc;" horiz-adv-x="705" d="M202 0v1530h300v-1530h-300zM353 1611l-394 314h329l268 -314h-203z" />
<glyph unicode="&#xcd;" horiz-adv-x="705" d="M202 0v1530h300v-1530h-300zM141 1611l273 315h326l-392 -315h-207z" />
<glyph unicode="&#xce;" horiz-adv-x="705" d="M202 0v1530h300v-1530h-300zM-15 1608l291 317h156l279 -317h-177l-183 140l-181 -140h-185z" />
<glyph unicode="&#xcf;" horiz-adv-x="705" d="M202 0v1530h300v-1530h-300zM0 1655v216h219v-216h-219zM483 1655v216h217v-216h-217z" />
<glyph unicode="&#xd0;" horiz-adv-x="1516" d="M184 832v698h555q189 0 350 -96q163 -97 242 -274q81 -177 81 -384q0 -174 -56 -336q-40 -118 -104 -196q-40 -48 -120 -107t-165 -91q-120 -46 -284 -46h-499v646h-89v186h89zM648 1241h-160v-409h304v-186h-304v-409h202q114 0 205 63q93 63 139 160q61 128 61 287 q0 227 -127 360q-128 134 -320 134z" />
<glyph unicode="&#xd1;" horiz-adv-x="1599" d="M178 0v1530h318l628 -1027v1027h298v-1530h-298l-645 1067v-1067h-301zM594 1623h-156q14 151 69 213q57 61 149 61q82 0 194 -56q62 -31 92 -31q55 0 67 84h149q-10 -148 -67 -211q-56 -62 -144 -62q-86 0 -201 58q-61 31 -87 31q-27 0 -45.5 -23t-19.5 -64z" />
<glyph unicode="&#xd2;" horiz-adv-x="1536" d="M738 1560q216 0 348 -72q172 -94 264 -270q91 -175 91 -462q0 -388 -183 -587t-484 -199q-305 0 -492 202t-187 592q0 235 76 420q40 103 125 192q175 184 442 184zM768 1298q-156 0 -256 -124q-101 -125 -101 -410q0 -281 102 -404q103 -123 263 -123q152 0 253 122 q101 124 101 402q0 311 -123 439q-95 98 -239 98zM768 1611l-394 314h329l268 -314h-203z" />
<glyph unicode="&#xd3;" horiz-adv-x="1536" d="M738 1560q216 0 348 -72q172 -94 264 -270q91 -175 91 -462q0 -388 -183 -587t-484 -199q-305 0 -492 202t-187 592q0 235 76 420q40 103 125 192q175 184 442 184zM768 1298q-156 0 -256 -124q-101 -125 -101 -410q0 -281 102 -404q103 -123 263 -123q152 0 253 122 q101 124 101 402q0 311 -123 439q-95 98 -239 98zM556 1611l273 315h326l-392 -315h-207z" />
<glyph unicode="&#xd4;" horiz-adv-x="1536" d="M738 1560q216 0 348 -72q172 -94 264 -270q91 -175 91 -462q0 -388 -183 -587t-484 -199q-305 0 -492 202t-187 592q0 235 76 420q40 103 125 192q175 184 442 184zM768 1298q-156 0 -256 -124q-101 -125 -101 -410q0 -281 102 -404q103 -123 263 -123q152 0 253 122 q101 124 101 402q0 311 -123 439q-95 98 -239 98zM400 1608l291 317h156l279 -317h-177l-183 140l-181 -140h-185z" />
<glyph unicode="&#xd5;" horiz-adv-x="1536" d="M738 1560q216 0 348 -72q172 -94 264 -270q91 -175 91 -462q0 -388 -183 -587t-484 -199q-305 0 -492 202t-187 592q0 235 76 420q40 103 125 192q175 184 442 184zM768 1298q-156 0 -256 -124q-101 -125 -101 -410q0 -281 102 -404q103 -123 263 -123q152 0 253 122 q101 124 101 402q0 311 -123 439q-95 98 -239 98zM562 1623h-156q14 151 69 213q57 61 149 61q82 0 194 -56q62 -31 92 -31q55 0 67 84h149q-10 -148 -67 -211q-56 -62 -144 -62q-86 0 -201 58q-61 31 -87 31q-27 0 -45.5 -23t-19.5 -64z" />
<glyph unicode="&#xd6;" horiz-adv-x="1536" d="M738 1560q216 0 348 -72q172 -94 264 -270q91 -175 91 -462q0 -388 -183 -587t-484 -199q-305 0 -492 202t-187 592q0 235 76 420q40 103 125 192q175 184 442 184zM768 1298q-156 0 -256 -124q-101 -125 -101 -410q0 -281 102 -404q103 -123 263 -123q152 0 253 122 q101 124 101 402q0 311 -123 439q-95 98 -239 98zM415 1655v216h219v-216h-219zM898 1655v216h217v-216h-217z" />
<glyph unicode="&#xd7;" horiz-adv-x="1366" d="M533 674l-375 375l151 151l375 -375l374 375l152 -152l-373 -374l370 -371l-151 -151l-371 370l-372 -370l-152 151z" />
<glyph unicode="&#xd8;" horiz-adv-x="1536" d="M1223 1387l143 166h125l-200 -238q79 -120 109 -223q43 -141 43 -331q0 -389 -185 -591q-185 -200 -486 -200q-161 0 -293 56q-82 34 -161 107l-140 -162h-130l199 240q-67 87 -98 178q-55 158 -55 363q0 292 87 464q88 174 252 268q131 76 331 76q151 0 256 -41 q102 -40 203 -132zM459 467l576 695q-103 133 -270 133q-151 0 -252 -123q-100 -121 -100 -401q0 -212 46 -304zM1084 1063l-576 -700q111 -131 270 -131q148 0 249 123q101 125 101 413q0 172 -44 295z" />
<glyph unicode="&#xd9;" horiz-adv-x="1556" d="M171 544v986h302v-934q0 -171 79.5 -260t221.5 -89q140 0 225 86t85 263v934h303v-978q0 -281 -154 -431.5t-447 -150.5q-170 0 -317 54q-75 27 -130 76q-72 66 -120 168q-48 104 -48 276zM778 1611l-394 314h329l268 -314h-203z" />
<glyph unicode="&#xda;" horiz-adv-x="1556" d="M171 544v986h302v-934q0 -171 79.5 -260t221.5 -89q140 0 225 86t85 263v934h303v-978q0 -281 -154 -431.5t-447 -150.5q-170 0 -317 54q-75 27 -130 76q-72 66 -120 168q-48 104 -48 276zM566 1611l273 315h326l-392 -315h-207z" />
<glyph unicode="&#xdb;" horiz-adv-x="1556" d="M171 544v986h302v-934q0 -171 79.5 -260t221.5 -89q140 0 225 86t85 263v934h303v-978q0 -281 -154 -431.5t-447 -150.5q-170 0 -317 54q-75 27 -130 76q-72 66 -120 168q-48 104 -48 276zM410 1608l291 317h156l279 -317h-177l-183 140l-181 -140h-185z" />
<glyph unicode="&#xdc;" horiz-adv-x="1556" d="M171 544v986h302v-934q0 -171 79.5 -260t221.5 -89q140 0 225 86t85 263v934h303v-978q0 -281 -154 -431.5t-447 -150.5q-170 0 -317 54q-75 27 -130 76q-72 66 -120 168q-48 104 -48 276zM425 1655v216h219v-216h-219zM908 1655v216h217v-216h-217z" />
<glyph unicode="&#xdd;" horiz-adv-x="1280" d="M485 682l-435 848h314l273 -531l270 531h314l-433 -848v-682h-303v682zM428 1611l273 315h326l-392 -315h-207z" />
<glyph unicode="&#xde;" horiz-adv-x="1430" d="M178 0v1530h306v-296h168q268 0 394 -43q127 -42 207 -146t80 -257q0 -113 -38 -200q-37 -86 -108 -144q-69 -57 -143 -88q-130 -53 -307 -53h-253v-303h-306zM724 967h-240v-416h225q156 0 248 74q63 51 63 148q0 90 -64 142t-232 52z" />
<glyph unicode="&#xdf;" horiz-adv-x="1217" d="M418 0h-279v1018q0 282 120 408q120 127 355 127q216 0 333 -105t117 -252q0 -216 -240 -319q95 -45 147 -88q159 -138 159 -360q0 -206 -115 -333q-115 -126 -273 -126q-62 0 -112.5 17t-113.5 59l113 172q52 -31 86 -31q44 0 72 43q42 64 42 216q0 184 -47 251t-153 83 v190q87 16 126.5 64.5t39.5 136.5q0 94 -45 141.5t-128 47.5q-93 0 -149 -65q-55 -64 -55 -234v-1061z" />
<glyph unicode="&#xe0;" horiz-adv-x="1153" d="M299 774l-164 138q81 96 193.5 146.5t242.5 50.5q134 0 236 -48q74 -36 128 -120q55 -82 55 -209v-508q0 -48 12 -116q11 -64 26 -108h-241q-18 60 -26 112q-149 -131 -318 -131q-147 0 -244 89q-95 90 -95 213q0 134 99.5 236.5t287.5 153.5q101 26 261 44q0 69 -12 100 q-18 48 -63.5 75t-110.5 27q-159 0 -267 -145zM752 288v273q-240 -45 -328 -123q-69 -58 -69 -133q0 -60 39.5 -99t100.5 -39q104 0 257 121zM577 1168l-394 314h329l268 -314h-203z" />
<glyph unicode="&#xe1;" horiz-adv-x="1153" d="M299 774l-164 138q81 96 193.5 146.5t242.5 50.5q134 0 236 -48q74 -36 128 -120q55 -82 55 -209v-508q0 -48 12 -116q11 -64 26 -108h-241q-18 60 -26 112q-149 -131 -318 -131q-147 0 -244 89q-95 90 -95 213q0 134 99.5 236.5t287.5 153.5q101 26 261 44q0 69 -12 100 q-18 48 -63.5 75t-110.5 27q-159 0 -267 -145zM752 288v273q-240 -45 -328 -123q-69 -58 -69 -133q0 -60 39.5 -99t100.5 -39q104 0 257 121zM365 1168l273 315h326l-392 -315h-207z" />
<glyph unicode="&#xe2;" horiz-adv-x="1153" d="M299 774l-164 138q81 96 193.5 146.5t242.5 50.5q134 0 236 -48q74 -36 128 -120q55 -82 55 -209v-508q0 -48 12 -116q11 -64 26 -108h-241q-18 60 -26 112q-149 -131 -318 -131q-147 0 -244 89q-95 90 -95 213q0 134 99.5 236.5t287.5 153.5q101 26 261 44q0 69 -12 100 q-18 48 -63.5 75t-110.5 27q-159 0 -267 -145zM752 288v273q-240 -45 -328 -123q-69 -58 -69 -133q0 -60 39.5 -99t100.5 -39q104 0 257 121zM209 1165l291 317h156l279 -317h-177l-183 140l-181 -140h-185z" />
<glyph unicode="&#xe3;" horiz-adv-x="1153" d="M299 774l-164 138q81 96 193.5 146.5t242.5 50.5q134 0 236 -48q74 -36 128 -120q55 -82 55 -209v-508q0 -48 12 -116q11 -64 26 -108h-241q-18 60 -26 112q-149 -131 -318 -131q-147 0 -244 89q-95 90 -95 213q0 134 99.5 236.5t287.5 153.5q101 26 261 44q0 69 -12 100 q-18 48 -63.5 75t-110.5 27q-159 0 -267 -145zM752 288v273q-240 -45 -328 -123q-69 -58 -69 -133q0 -60 39.5 -99t100.5 -39q104 0 257 121zM371 1180h-156q13 152 69 213q57 61 149 61q82 0 194 -56q62 -31 92 -31q55 0 67 84h149q-10 -148 -67 -211q-56 -62 -144 -62 q-86 0 -201 58q-61 31 -87 31q-27 0 -45.5 -23t-19.5 -64z" />
<glyph unicode="&#xe4;" horiz-adv-x="1153" d="M299 774l-164 138q81 96 193.5 146.5t242.5 50.5q134 0 236 -48q74 -36 128 -120q55 -82 55 -209v-508q0 -48 12 -116q11 -64 26 -108h-241q-18 60 -26 112q-149 -131 -318 -131q-147 0 -244 89q-95 90 -95 213q0 134 99.5 236.5t287.5 153.5q101 26 261 44q0 69 -12 100 q-18 48 -63.5 75t-110.5 27q-159 0 -267 -145zM752 288v273q-240 -45 -328 -123q-69 -58 -69 -133q0 -60 39.5 -99t100.5 -39q104 0 257 121zM224 1212v216h219v-216h-219zM707 1212v216h217v-216h-217z" />
<glyph unicode="&#xe5;" horiz-adv-x="1153" d="M299 774l-164 138q81 96 193.5 146.5t242.5 50.5q134 0 236 -48q74 -36 128 -120q55 -82 55 -209v-508q0 -48 12 -116q11 -64 26 -108h-241q-18 60 -26 112q-149 -131 -318 -131q-147 0 -244 89q-95 90 -95 213q0 134 99.5 236.5t287.5 153.5q101 26 261 44q0 69 -12 100 q-18 48 -63.5 75t-110.5 27q-159 0 -267 -145zM752 288v273q-240 -45 -328 -123q-69 -58 -69 -133q0 -60 39.5 -99t100.5 -39q104 0 257 121zM576 1560q79 0 135 -56t56 -135t-56 -135q-55 -55 -134 -55q-80 0 -135 55t-55 135q0 78 56 134q57 57 133 57zM580 1484 q-50 0 -84 -34t-34 -82t34 -82t82 -34t81.5 34t33.5 82t-34 82q-33 34 -79 34z" />
<glyph unicode="&#xe6;" horiz-adv-x="1878" d="M909 169q-147 -107 -252 -148q-102 -39 -205 -39q-158 0 -253 88q-96 88 -96 216q0 111 78 207q77 96 227 149q116 41 368 63q0 74 -12 107q-36 109 -183 109q-169 0 -280 -143l-161 137q81 90 172 133q128 61 282 61q116 0 196 -39t156 -126q75 86 158.5 125.5 t196.5 39.5q140 0 238 -53q96 -52 152 -132q56 -81 77 -178q22 -95 22 -251h-739q9 -147 74.5 -219t176.5 -72q152 0 232 155l233 -102q-74 -123 -168 -188q-127 -87 -289 -87q-119 0 -211 43q-93 44 -190 144zM1056 665h478q-10 127 -76 193q-64 66 -158 66q-99 0 -167 -68 t-77 -191zM776 271v275q-233 -41 -328 -122q-69 -58 -69 -132q0 -62 38.5 -101t98.5 -39q111 0 260 119z" />
<glyph unicode="&#xe7;" horiz-adv-x="1087" d="M798 400l216 -107q-39 -98 -79 -150q-123 -161 -341 -161q-247 0 -386 190q-111 152 -111 369q0 253 147 411q147 157 360 157q190 0 311 -140q39 -44 86 -139l-234 -62q-39 65 -79.5 93t-92.5 28q-80 0 -138 -73q-57 -74 -57 -234q0 -126 31 -225q21 -70 67.5 -108.5 t105.5 -38.5q138 0 194 190zM229 -403v117h14q111 -10 172 -10q91 0 135 33q33 24 33 61q0 36 -32.5 60t-92.5 24q-61 0 -133 -20l26 99q83 21 170 21q124 0 188 -55q65 -56 65 -132q0 -85 -85 -149q-85 -65 -269 -65q-120 0 -191 16z" />
<glyph unicode="&#xe8;" d="M838 357l225 -95q-37 -70 -70 -109q-145 -171 -373 -171q-139 0 -263 70q-123 70 -190 205q-66 135 -66 301q0 253 142 401q143 150 365 150q217 0 348 -137t131 -381q0 -33 -3 -94h-692q4 -148 69 -220t161 -72q73 0 125 37.5t91 114.5zM391 662h447q-6 125 -70 192 t-157 67q-92 0 -152 -67t-68 -192zM587 1168l-394 314h329l268 -314h-203z" />
<glyph unicode="&#xe9;" d="M838 357l225 -95q-37 -70 -70 -109q-145 -171 -373 -171q-139 0 -263 70q-123 70 -190 205q-66 135 -66 301q0 253 142 401q143 150 365 150q217 0 348 -137t131 -381q0 -33 -3 -94h-692q4 -148 69 -220t161 -72q73 0 125 37.5t91 114.5zM391 662h447q-6 125 -70 192 t-157 67q-92 0 -152 -67t-68 -192zM375 1168l273 315h326l-392 -315h-207z" />
<glyph unicode="&#xea;" d="M838 357l225 -95q-37 -70 -70 -109q-145 -171 -373 -171q-139 0 -263 70q-123 70 -190 205q-66 135 -66 301q0 253 142 401q143 150 365 150q217 0 348 -137t131 -381q0 -33 -3 -94h-692q4 -148 69 -220t161 -72q73 0 125 37.5t91 114.5zM391 662h447q-6 125 -70 192 t-157 67q-92 0 -152 -67t-68 -192zM219 1165l291 317h156l279 -317h-177l-183 140l-181 -140h-185z" />
<glyph unicode="&#xeb;" d="M838 357l225 -95q-37 -70 -70 -109q-145 -171 -373 -171q-139 0 -263 70q-123 70 -190 205q-66 135 -66 301q0 253 142 401q143 150 365 150q217 0 348 -137t131 -381q0 -33 -3 -94h-692q4 -148 69 -220t161 -72q73 0 125 37.5t91 114.5zM391 662h447q-6 125 -70 192 t-157 67q-92 0 -152 -67t-68 -192zM234 1212v216h219v-216h-219zM717 1212v216h217v-216h-217z" />
<glyph unicode="&#xec;" horiz-adv-x="662" d="M194 0v1090h274v-1090h-274zM331 1168l-394 314h329l268 -314h-203z" />
<glyph unicode="&#xed;" horiz-adv-x="662" d="M194 0v1090h274v-1090h-274zM119 1168l273 315h326l-392 -315h-207z" />
<glyph unicode="&#xee;" horiz-adv-x="662" d="M194 0v1090h274v-1090h-274zM-37 1165l291 317h156l279 -317h-177l-183 140l-181 -140h-185z" />
<glyph unicode="&#xef;" horiz-adv-x="662" d="M194 0v1090h274v-1090h-274zM-22 1212v216h219v-216h-219zM461 1212v216h217v-216h-217z" />
<glyph unicode="&#xf0;" d="M280 1553h238l82 -63l147 63l45 -95l-108 -49q140 -153 200 -244q84 -129 137 -291q54 -164 54 -320q0 -270 -138 -421t-342 -151q-214 0 -355 149q-141 150 -141 406q0 173 62 308q63 134 179 199t248 65q26 0 38 -2q16 -2 49 -2q-67 127 -157 230l-310 -139l-41 97 l277 127q-84 77 -164 133zM591 926q-97 0 -152 -73q-73 -97 -73 -311q0 -192 66 -278q66 -84 158 -84q88 0 142 73q73 97 73 305q0 196 -65 282t-149 86z" />
<glyph unicode="&#xf1;" horiz-adv-x="1217" d="M444 1090v-149q89 85 180 126.5t198 41.5q124 0 178 -60q72 -79 72 -219v-830h-274v760q0 124 -100 124q-50 0 -108 -29q-60 -30 -146 -110v-745h-276v1090h276zM403 1180h-156q13 152 69 213q57 61 149 61q82 0 194 -56q62 -31 92 -31q55 0 67 84h149q-10 -148 -67 -211 q-56 -62 -144 -62q-86 0 -201 58q-61 31 -87 31q-27 0 -45.5 -23t-19.5 -64z" />
<glyph unicode="&#xf2;" d="M561 1109q243 0 381 -145q139 -145 139 -412q0 -268 -140 -420q-139 -151 -350 -151q-201 0 -350 143q-148 142 -148 426q0 268 133 413q134 146 335 146zM589 927q-94 0 -148 -73q-72 -98 -72 -310q0 -196 64 -278q65 -83 154 -83q64 0 115.5 41t74.5 115q33 105 33 237 q0 100 -28 184q-26 83 -77 125t-116 42zM587 1168l-394 314h329l268 -314h-203z" />
<glyph unicode="&#xf3;" d="M561 1109q243 0 381 -145q139 -145 139 -412q0 -268 -140 -420q-139 -151 -350 -151q-201 0 -350 143q-148 142 -148 426q0 268 133 413q134 146 335 146zM589 927q-94 0 -148 -73q-72 -98 -72 -310q0 -196 64 -278q65 -83 154 -83q64 0 115.5 41t74.5 115q33 105 33 237 q0 100 -28 184q-26 83 -77 125t-116 42zM375 1168l273 315h326l-392 -315h-207z" />
<glyph unicode="&#xf4;" d="M561 1109q243 0 381 -145q139 -145 139 -412q0 -268 -140 -420q-139 -151 -350 -151q-201 0 -350 143q-148 142 -148 426q0 268 133 413q134 146 335 146zM589 927q-94 0 -148 -73q-72 -98 -72 -310q0 -196 64 -278q65 -83 154 -83q64 0 115.5 41t74.5 115q33 105 33 237 q0 100 -28 184q-26 83 -77 125t-116 42zM219 1165l291 317h156l279 -317h-177l-183 140l-181 -140h-185z" />
<glyph unicode="&#xf5;" d="M561 1109q243 0 381 -145q139 -145 139 -412q0 -268 -140 -420q-139 -151 -350 -151q-201 0 -350 143q-148 142 -148 426q0 268 133 413q134 146 335 146zM589 927q-94 0 -148 -73q-72 -98 -72 -310q0 -196 64 -278q65 -83 154 -83q64 0 115.5 41t74.5 115q33 105 33 237 q0 100 -28 184q-26 83 -77 125t-116 42zM381 1180h-156q13 152 69 213q57 61 149 61q82 0 194 -56q62 -31 92 -31q55 0 67 84h149q-10 -148 -67 -211q-56 -62 -144 -62q-86 0 -201 58q-61 31 -87 31q-27 0 -45.5 -23t-19.5 -64z" />
<glyph unicode="&#xf6;" d="M561 1109q243 0 381 -145q139 -145 139 -412q0 -268 -140 -420q-139 -151 -350 -151q-201 0 -350 143q-148 142 -148 426q0 268 133 413q134 146 335 146zM589 927q-94 0 -148 -73q-72 -98 -72 -310q0 -196 64 -278q65 -83 154 -83q64 0 115.5 41t74.5 115q33 105 33 237 q0 100 -28 184q-26 83 -77 125t-116 42zM234 1212v216h219v-216h-219zM717 1212v216h217v-216h-217z" />
<glyph unicode="&#xf7;" horiz-adv-x="1366" d="M808 1096q0 -53 -38 -91q-37 -37 -91 -37t-91 37t-37 91q0 53 37 90q38 38 91 38t91 -38t38 -90zM126 574v204h1114v-204h-1114zM811 264q0 -54 -38 -92q-37 -37 -92 -37q-54 0 -91 37q-38 38 -38 92q0 53 38 91t91 38q54 0 92 -38t38 -91z" />
<glyph unicode="&#xf8;" d="M1153 1162l-188 -225q116 -146 116 -386q0 -267 -140 -419q-139 -151 -350 -151q-187 0 -324 119l-139 -167h-110l190 228q-116 146 -116 390q0 242 122 400q123 158 352 158q210 0 341 -111l136 164h110zM387 376l371 444q-62 107 -173 107q-90 0 -145 -73 q-72 -96 -72 -306q0 -100 19 -172zM791 728l-370 -444q62 -101 165 -101q92 0 158 86q66 87 66 304q0 83 -19 155z" />
<glyph unicode="&#xf9;" horiz-adv-x="1217" d="M143 287v803h279v-748q0 -56 31.5 -90t81.5 -34q51 0 104 29q52 28 129 110v733h277v-1090h-277v164q-96 -96 -192 -139t-170 -43q-106 -2 -185 78.5t-78 226.5zM609 1168l-394 314h329l268 -314h-203z" />
<glyph unicode="&#xfa;" horiz-adv-x="1217" d="M143 287v803h279v-748q0 -56 31.5 -90t81.5 -34q51 0 104 29q52 28 129 110v733h277v-1090h-277v164q-96 -96 -192 -139t-170 -43q-106 -2 -185 78.5t-78 226.5zM397 1168l273 315h326l-392 -315h-207z" />
<glyph unicode="&#xfb;" horiz-adv-x="1217" d="M143 287v803h279v-748q0 -56 31.5 -90t81.5 -34q51 0 104 29q52 28 129 110v733h277v-1090h-277v164q-96 -96 -192 -139t-170 -43q-106 -2 -185 78.5t-78 226.5zM241 1165l291 317h156l279 -317h-177l-183 140l-181 -140h-185z" />
<glyph unicode="&#xfc;" horiz-adv-x="1217" d="M143 287v803h279v-748q0 -56 31.5 -90t81.5 -34q51 0 104 29q52 28 129 110v733h277v-1090h-277v164q-96 -96 -192 -139t-170 -43q-106 -2 -185 78.5t-78 226.5zM256 1212v216h219v-216h-219zM739 1212v216h217v-216h-217z" />
<glyph unicode="&#xfd;" horiz-adv-x="1067" d="M413 -34l-343 1124h260l213 -699l212 699h257l-308 -1024q-55 -183 -109 -277t-127 -151q-96 -77 -290 -77h-99v191h54q113 0 184.5 55t95.5 159zM322 1168l273 315h326l-392 -315h-207z" />
<glyph unicode="&#xfe;" horiz-adv-x="1260" d="M453 1553v-579q147 135 287 135q141 0 259 -115q160 -156 160 -443q0 -285 -159 -447q-120 -122 -255 -122q-125 0 -292 145v-566h-277v1992h277zM453 786v-471q72 -48 120 -67q48 -17 93 -17q91 0 154 77q64 77 64 249q0 155 -65 234q-65 78 -154 78q-49 0 -97 -18.5 t-115 -64.5z" />
<glyph unicode="&#xff;" horiz-adv-x="1067" d="M413 -34l-343 1124h260l213 -699l212 699h257l-308 -1024q-55 -183 -109 -277t-127 -151q-96 -77 -290 -77h-99v191h54q113 0 184.5 55t95.5 159zM181 1212v216h219v-216h-219zM664 1212v216h217v-216h-217z" />
<glyph unicode="&#x152;" horiz-adv-x="2005" d="M1008 0v94q-90 -61 -165 -86q-78 -26 -166 -26q-177 0 -316 97q-139 98 -203 279q-64 180 -64 389q0 410 171 608q173 198 419 198q99 0 176 -31t148 -96v104h906v-263h-601v-338h360v-229h-360v-433h601v-267h-906zM703 1281q-129 0 -200 -96q-93 -126 -93 -425 q0 -292 81 -402q83 -108 211 -108q133 0 209 100q99 134 99 428q0 272 -91 387q-90 116 -216 116z" />
<glyph unicode="&#x153;" horiz-adv-x="1898" d="M963 172q-91 -104 -177 -147q-85 -43 -193 -43q-207 0 -350 150q-141 152 -141 409q0 228 106 376q135 192 390 192q126 0 208 -45q82 -42 157 -142q100 107 181 147q79 40 189 40q254 0 386 -188q91 -128 91 -360q0 -37 -1 -68h-699q3 -95 25 -148q28 -69 82 -105 t121 -36q144 0 224 152l225 -95q-46 -85 -88 -128q-144 -151 -363 -151q-117 0 -201 42q-84 43 -172 148zM596 927q-92 0 -146 -71q-72 -94 -72 -295q0 -212 70 -306q53 -71 144 -71q96 0 153 75q74 100 74 311q0 190 -65 273q-64 84 -158 84zM1112 662h450q-8 125 -73 192 q-64 67 -160 67q-93 0 -151 -65.5t-66 -193.5z" />
<glyph unicode="&#x178;" horiz-adv-x="1280" d="M485 682l-435 848h314l273 -531l270 531h314l-433 -848v-682h-303v682zM287 1655v216h219v-216h-219zM770 1655v216h217v-216h-217z" />
<glyph unicode="&#x2c6;" horiz-adv-x="682" d="M-27 1165l291 317h156l279 -317h-177l-183 140l-181 -140h-185z" />
<glyph unicode="&#x2dc;" horiz-adv-x="682" d="M135 1180h-156q13 152 69 213q57 61 149 61q82 0 194 -56q62 -31 92 -31q55 0 67 84h149q-10 -148 -67 -211q-56 -62 -144 -62q-86 0 -201 58q-61 31 -87 31q-27 0 -45.5 -23t-19.5 -64z" />
<glyph unicode="&#x2000;" horiz-adv-x="1001" />
<glyph unicode="&#x2001;" horiz-adv-x="2003" />
<glyph unicode="&#x2002;" horiz-adv-x="1001" />
<glyph unicode="&#x2003;" horiz-adv-x="2003" />
<glyph unicode="&#x2004;" horiz-adv-x="667" />
<glyph unicode="&#x2005;" horiz-adv-x="500" />
<glyph unicode="&#x2006;" horiz-adv-x="333" />
<glyph unicode="&#x2007;" horiz-adv-x="333" />
<glyph unicode="&#x2008;" horiz-adv-x="250" />
<glyph unicode="&#x2009;" horiz-adv-x="400" />
<glyph unicode="&#x200a;" horiz-adv-x="111" />
<glyph unicode="&#x2010;" horiz-adv-x="748" d="M109 422v255h529v-255h-529z" />
<glyph unicode="&#x2011;" horiz-adv-x="748" d="M109 422v255h529v-255h-529z" />
<glyph unicode="&#x2012;" horiz-adv-x="748" d="M109 422v255h529v-255h-529z" />
<glyph unicode="&#x2013;" horiz-adv-x="1024" d="M-16 394v250h1054v-250h-1054z" />
<glyph unicode="&#x2014;" horiz-adv-x="2048" d="M-16 394v250h2079v-250h-2079z" />
<glyph unicode="&#x2018;" horiz-adv-x="641" d="M166 1202l199 328h102l-169 -328h169v-326h-301v326z" />
<glyph unicode="&#x2019;" horiz-adv-x="641" d="M165 1202v328h298v-328l-191 -326h-107l167 326h-167z" />
<glyph unicode="&#x201a;" horiz-adv-x="641" d="M166 0v333h300v-333l-183 -329h-106l162 329h-173z" />
<glyph unicode="&#x201c;" d="M166 1202l199 328h102l-169 -328h169v-326h-301v326zM796 1202l199 328h102l-169 -328h169v-326h-301v326z" />
<glyph unicode="&#x201d;" d="M165 1202v328h298v-328l-191 -326h-107l167 326h-167zM797 1202v328h298v-328l-191 -326h-107l167 326h-167z" />
<glyph unicode="&#x201e;" d="M166 0v333h300v-333l-183 -329h-106l162 329h-173zM801 0v333h300v-333l-183 -329h-106l162 329h-173z" />
<glyph unicode="&#x2022;" horiz-adv-x="725" d="M657 724q0 -123 -87 -210q-86 -86 -208 -86q-123 0 -210 87q-86 88 -86 209q0 122 86 208q87 87 210 87q122 0 208 -86q87 -85 87 -209z" />
<glyph unicode="&#x2026;" horiz-adv-x="1921" d="M265 0v331h300v-331h-300zM823 0v331h300v-331h-300zM1370 0v331h300v-331h-300z" />
<glyph unicode="&#x202f;" horiz-adv-x="400" />
<glyph unicode="&#x2039;" horiz-adv-x="618" d="M48 542l237 548h288l-237 -548l237 -542h-288z" />
<glyph unicode="&#x203a;" horiz-adv-x="618" d="M283 544l-235 546h287l235 -546l-235 -544h-287z" />
<glyph unicode="&#x205f;" horiz-adv-x="500" />
<glyph unicode="&#x20ac;" horiz-adv-x="1280" d="M962 497l278 -73q-103 -454 -522 -454q-496 0 -564 569h-114l30 148h73q-1 22 -1 67q0 62 1 80h-103l30 148h85q72 578 538 578q418 0 533 -397l-279 -70q-61 219 -237 219q-216 0 -259 -330h460l-30 -148h-441q-1 -24 -1 -147h411l-30 -148h-372q42 -323 261 -323 q203 0 253 281z" />
<glyph unicode="&#x2122;" horiz-adv-x="2048" d="M635 712h-166v676h-253v142h665v-142h-246v-676zM1136 712h-156v818h259l149 -564l150 564h259v-818h-158v652l-177 -652h-150l-176 652v-652z" />
<glyph unicode="&#xe000;" horiz-adv-x="1090" d="M0 1090h1090v-1090h-1090v1090z" />
<glyph unicode="&#xfb01;" horiz-adv-x="1367" d="M899 1278v275h274v-275h-274zM899 0v1090h274v-1090h-274zM56 1090h125q7 170 33 249t78 129q40 39 110 61q72 24 147 24h105v-194h-46q-150 0 -150 -112v-157h165v-198h-165v-892h-277v892h-125v198z" />
<glyph unicode="&#xfb02;" horiz-adv-x="1387" d="M909 0v1553h276v-1553h-276zM56 1090h125q7 170 33 249t78 129q40 39 110 61q72 24 147 24h105v-194h-46q-150 0 -150 -112v-157h165v-198h-165v-892h-277v892h-125v198z" />
<glyph unicode="&#xfb03;" horiz-adv-x="2072" d="M1604 1278v275h274v-275h-274zM1604 0v1090h274v-1090h-274zM761 1090h125q7 170 33 249t78 129q40 39 110 61q72 24 147 24h105v-194h-46q-150 0 -150 -112v-157h165v-198h-165v-892h-277v892h-125v198zM56 1090h125q7 170 33 249t78 129q40 39 110 61q72 24 147 24h105 v-194h-46q-150 0 -150 -112v-157h165v-198h-165v-892h-277v892h-125v198z" />
<glyph unicode="&#xfb04;" horiz-adv-x="2092" d="M1614 0v1553h276v-1553h-276zM761 1090h125q7 170 33 249t78 129q40 39 110 61q72 24 147 24h105v-194h-46q-150 0 -150 -112v-157h165v-198h-165v-892h-277v892h-125v198zM56 1090h125q7 170 33 249t78 129q40 39 110 61q72 24 147 24h105v-194h-46q-150 0 -150 -112 v-157h165v-198h-165v-892h-277v892h-125v198z" />
</font>
</defs>
</svg>
